<?xml version="1.0" standalone="no"?>
<!DOCTYPE svg PUBLIC "-//W3C//DTD SVG 1.1//EN" "http://www.w3.org/Graphics/SVG/1.1/DTD/svg11.dtd" >
<svg xmlns="http://www.w3.org/2000/svg">
<metadata>Generated by IcoMoon</metadata>
<defs>
<font id="icomoon" horiz-adv-x="1024">
<font-face units-per-em="1024" ascent="960" descent="-64" />
<missing-glyph horiz-adv-x="1024" />
<glyph unicode="&#x20;" horiz-adv-x="512" d="" />
<glyph unicode="&#xe900;" d="M65 769c212.002 0.333 424.002 0 636-1 26.732-9.788 37.732-28.788 33-57-10-10.666-20-10.666-30 0-0.44 8.838-3.44 16.506-9 23-2.666 0.666-5.334 1.334-8 2-205.42 1.982-410.754 1.316-616-2-4.535-3.116-6.869-7.448-7-13-1-111.998-1.333-223.998-1-336 126.002 0.334 252.002 0 378-1 10.666-10 10.666-20 0-30-125.998-1-251.998-1.334-378-1-0.333-26.674 0-53.342 1-80 0.925-8.926 5.925-13.926 15-15 120.667-0.666 241.334-1.334 362-2 10.666-10 10.666-20 0-30-34.666-0.666-69.334-1.334-104-2-3.174-23.010-11.842-43.676-26-62 42.666-0.666 85.334-1.334 128-2 3.666-1 6-3.334 7-7 1.858-7.488 0.858-14.488-3-21-70.496-3.306-141.164-3.972-212-2-12.26 9.202-12.928 19.202-2 30 12 0.666 24 1.334 36 2 19.288 16.618 31.954 37.284 38 62-79.334 0.666-158.667 1.334-238 2-16.333 5.666-27.333 16.666-33 33-1.333 158.666-1.333 317.334 0 476 6.038 16.368 17.038 27.702 33 34z" />
<glyph unicode="&#xe901;" d="M525 675c-27.31-4.312-42.976-20.312-47-48-1.334-150.666-1.334-301.334 0-452 1.926-22.59 13.592-37.59 35-45 71.334-1.334 142.666-1.334 214 0 6.032 3.058 8.698 8.058 8 15 0.698 6.942-1.968 11.942-8 15-66.666 0.666-133.334 1.334-200 2-9.074 1.074-14.074 6.074-15 15-1 26.658-1.334 53.326-1 80 72.004-0.334 144.004 0 216 1 6.032 3.058 8.698 8.058 8 15 0.698 6.942-1.968 11.942-8 15-71.996 1-143.996 1.334-216 1 0 96 0 192 0 288 106.666 0 213.334 0 320 0-0.898-20.21 0.102-40.21 3-60 9.836-5.768 19.17-5.102 28 2 3.192 35.244 3.86 70.578 2 106-0.988 23.65-12.654 39.316-35 47-101.268 2.944-202.6 3.944-304 3zM527 641c96.002 0.334 192.002 0 288-1 5.552-0.132 9.884-2.464 13-7 2.312-7.836 3.312-15.836 3-24-106.666 0-213.334 0-320 0-0.312 8.164 0.688 16.164 3 24 3.584 4.256 7.916 6.922 13 8z" />
<glyph unicode="&#xe902;" d="M107 643c8.244 0.048 14.577-3.286 19-10 1.333-16 1.333-32 0-48-3.057-6.032-8.057-8.698-15-8-4.852-0.192-9.185 1.14-13 4-5.816 17.078-6.483 34.412-2 52 2.213 5.226 5.88 8.56 11 10z" />
<glyph unicode="&#xe903;" d="M107 547c8.244 0.048 14.577-3.286 19-10 1.333-37.334 1.333-74.666 0-112-3.057-6.032-8.057-8.698-15-8-11.117-0.552-16.784 4.782-17 16-1.333 32-1.333 64 0 96 0.489 9.044 4.823 15.044 13 18z" />
<glyph unicode="&#xe904;" d="M555 547c8.244 0.048 14.576-3.286 19-10 1.334-16 1.334-32 0-48-3.058-6.032-8.058-8.698-15-8-6.028-0.484-11.028 1.516-15 6-3.918 16.684-3.918 33.35 0 50 2.704 4.498 6.37 7.832 11 10z" />
<glyph unicode="&#xe905;" d="M801 481c-15.962-6.298-26.962-17.632-33-34-1.97-96.784-1.304-193.45 2-290 6.628-13.298 16.962-22.298 31-27 54.124-1.948 108.124-1.28 162 2 13.298 6.628 22.298 16.962 27 31 1.97 96.784 1.304 193.45-2 290-6.628 13.298-16.962 22.298-31 27-51.996 1-103.996 1.334-156 1zM815 449c42.672 0.334 85.338 0 128-1 6.534 0.126 10.868-2.874 13-9 0.998-7.304 1.33-14.636 1-22-52 0-104 0-156 0-0.332 8.028 0.002 16.028 1 24 3.584 4.256 7.916 6.922 13 8zM801 385c52 0 104 0 156 0 0-52.666 0-105.334 0-158-52 0-104 0-156 0 0 52.666 0 105.334 0 158zM801 193c52 0 104 0 156 0 0.33-7.364-0.002-14.696-1-22-1-3.666-3.334-6-7-7-23.198-2.27-46.532-3.27-70-3-23.468-0.27-46.802 0.73-70 3-2.862 0.93-5.194 2.598-7 5-0.998 7.972-1.332 15.972-1 24z" />
<glyph unicode="&#xe906;" d="M557 451c7.442-0.566 13.108-3.9 17-10 1.334-37.334 1.334-74.666 0-112-3.058-6.032-8.058-8.698-15-8-6.942-0.698-11.942 1.968-15 8-2.224 18.886-3.224 37.886-3 57 0.334 16.334 0.666 32.666 1 49 1.36 9.022 6.36 14.354 15 16z" />
<glyph unicode="&#xe907;" d="M357 321c16.68 0.332 33.346 0 50-1 3.666-1 6-3.334 7-7 1.334-5.334 1.334-10.666 0-16-1-3.666-3.334-6-7-7-16.666-1.334-33.334-1.334-50 0-10.558 10.328-10.558 20.662 0 31z" />
<glyph unicode="&#xe908;" d="M655 227c14.148 0.678 28.148-0.322 42-3 10.928-10.798 10.26-20.798-2-30-8-0.334-16-0.666-24-1-9.556-0.218-18.888 0.782-28 3-5.334 8.666-5.334 17.334 0 26 4.222 1.69 8.222 3.356 12 5z" />
<glyph unicode="&#xe909;" d="M83 855c-34.222-7.643-56.555-28.31-67-62-1.333-184-1.333-368 0-552 8.333-32.334 28.667-52.666 61-61 86.008-0.334 172.008-1.334 258-3-5.61-14.164-11.61-28.164-18-42-24.064-1.216-48.064-2.882-72-5-9.312-3.294-16.978-8.96-23-17-14.88-34.562-4.546-57.562 31-69 126-1.334 252-1.334 378 0 16.278 2.936 27.944 11.936 35 27 8.004 27.648-0.996 47.314-27 59-23.936 2.118-47.936 3.784-72 5-6.39 13.836-12.39 27.836-18 42 85.992 1.666 171.992 2.666 258 3 32.334 8.334 52.666 28.666 61 61 1.334 104.666 1.334 209.334 0 314-9.578 11.104-18.244 10.438-26-2-1-79.33-1.334-158.664-1-238-266 0-532 0-798 0-0.333 156.668 0 313.334 1 470 6.114 23.449 21.114 37.116 45 41 235.334 1.333 470.666 1.333 706 0 5.214-1.637 10.548-2.637 16-3 4.386-0.348 8.054 0.986 11 4 4.18 7.241 3.846 14.241-1 21-7.058 2.931-14.39 4.931-22 6-238.666 1-477.332 1.333-716 1zM631 555c9.534 0.618 18.868-0.382 28-3 14.334-14.334 28.666-28.666 43-43 2.458-45.374-17.876-75.708-61-91-28.568-10.238-57.902-13.904-88-11 12.060 28.232 20.392 57.566 25 88 9.060 28.034 26.726 48.034 53 60zM43 287c266 0 532 0 798 0 0.332-13.35 0-26.684-1-40-5-21-18-34-39-39-239.334-1.334-478.666-1.334-718 0-21 5-34 18-39 39-0.999 13.316-1.333 26.65-1 40zM367 179c50.004 0.334 100.004 0 150-1 6.258-14.188 12.258-28.522 18-43-62-2.666-124-2.666-186 0 6.030 14.718 12.030 29.384 18 44zM253 103c126.002 0.334 252.002 0 378-1 9.008-5.674 11.342-13.34 7-23-3.6-3.634-7.932-5.968-13-7-122-1.334-244-1.334-366 0-9.36 1.36-14.694 6.694-16 16 1.66 6.382 4.994 11.382 10 15z" />
<glyph unicode="&#xe90a;" d="M907 853c51.444 5.142 84.444-16.858 99-66 4.080-25.005-1.252-47.672-16-68-85.418-71.422-171.418-142.090-258-212 0.158-56.724-26.176-95.056-79-115-43.68-14.404-88.348-19.072-134-14-5.194 4.634-6.86 10.3-5 17 7.722 12.776 14.388 26.108 20 40 6.92 25.938 13.588 51.938 20 78 10.578 29.912 30.246 51.578 59 65 15.098 5.118 30.43 6.118 46 3 68.044 81.708 135.71 163.708 203 246 12.89 12.602 27.89 21.269 45 26zM913 825c45.6 1.401 67.266-20.599 65-66-3.548-12.106-9.882-22.44-19-31-57.334-46.666-114.666-93.334-172-140-2-1.334-4-1.334-6 0-13.666 13.666-27.334 27.334-41 41-1.334 1.334-1.334 2.666 0 4 49.58 60.918 99.914 121.252 151 181 6.98 4.824 14.314 8.491 22 11zM719 609c14.264-13.262 28.264-26.928 42-41-13.688-11.028-27.356-22.028-41-33-12.334 9.666-23.334 20.666-33 33 11.068 13.396 21.734 27.062 32 41zM631 555c-26.274-11.966-43.94-31.966-53-60-4.608-30.434-12.94-59.768-25-88 30.098-2.904 59.432 0.762 88 11 43.124 15.292 63.458 45.626 61 91-14.334 14.334-28.666 28.666-43 43-9.132 2.618-18.466 3.618-28 3z" />
<glyph unicode="&#xe90b;" d="M103 775c-7.075-0.731-11.408-4.731-13-12-1.333-46.666-1.333-93.334 0-140 1.569-3.572 3.902-6.572 7-9 60.667-1.334 121.334-1.334 182 0 1.832 0.748 3.5 1.748 5 3 3.294 49.826 3.962 99.826 2 150-1.666 1.667-3.334 3.333-5 5-59.206 2.953-118.54 3.953-178 3zM119 745c46.667 0 93.334 0 140 0 0-34.666 0-69.334 0-104-46.666 0-93.333 0-140 0 0 34.666 0 69.334 0 104z" />
<glyph unicode="&#xe90c;" d="M331 775c-4.334-1.396-8-4.063-11-8-1.334-48.666-1.334-97.334 0-146 0.748-1.832 1.748-3.5 3-5 61.828-3.302 123.828-3.968 186-2 1.666 1.666 3.334 3.334 5 5 3.294 48.492 3.96 97.158 2 146-0.93 2.862-2.598 5.195-5 7-59.9 2.937-119.9 3.937-180 3zM347 745c47.334 0 94.666 0 142 0 0-34.666 0-69.334 0-104-47.334 0-94.666 0-142 0 0 34.666 0 69.334 0 104z" />
<glyph unicode="&#xe90d;" d="M97 575c61.337 0.334 122.67 0 184-1 8.914-10.27 7.58-18.936-4-26-58.666-1.334-117.333-1.334-176 0-10.814 4.422-13.814 12.090-9 23 1.989 1.132 3.656 2.466 5 4z" />
<glyph unicode="&#xe90e;" d="M325 575c62.004 0.334 124.004 0 186-1 8.916-10.318 7.584-18.984-4-26-59.334-1.334-118.666-1.334-178 0-11.678 7.41-13.012 16.41-4 27z" />
<glyph unicode="&#xe90f;" d="M99 517c42.672 0.334 85.339 0 128-1 10.252-5.106 12.586-12.772 7-23-1.5-1.252-3.168-2.252-5-3-44-1.334-88-1.334-132 0-10.944 9.882-10.277 18.882 2 27z" />
<glyph unicode="&#xe910;" d="M329 517c42.672 0.334 85.338 0 128-1 11.206-8.068 11.872-16.736 2-26-44.666-1.334-89.334-1.334-134 0-8.916 10.822-7.582 19.822 4 27z" />
<glyph unicode="&#xe911;" d="M437 263c16.392-0.058 22.726-8.058 19-24-5.026-7.424-12.026-9.756-21-7-13.344 11.060-12.676 21.394 2 31z" />
<glyph unicode="&#xe912;" d="M1023 533c-11.004 31.99-33.338 50.656-67 56-50.928 148.244-149.928 249.244-297 303-116.238 35.742-230.238 29.742-342-18-10.488-4.406-20.156-10.072-29-17-5.388-13.884-0.722-22.551 14-26 28.202 13.623 57.202 25.29 87 35 25.54 7.777 51.54 12.443 78 14-41.824-43.021-77.824-90.354-108-142-57.334-1.334-114.666-1.334-172 0 21.232 22.577 43.564 43.577 67 63 2.044 21.819-6.956 28.153-27 19-77.107-60.508-130.774-137.508-161-231-33.662-5.344-55.995-24.010-67-56 0-56 0-112 0-168 11.005-31.99 33.338-50.656 67-56 14.454-46.906 35.787-90.24 64-130 114.042-149.476 265.042-213.144 453-191 60.944 9.196 117.276 30.196 169 63 5.388 13.884 0.722 22.55-14 26-18.394-8.696-36.728-17.696-55-27-41.032-17.592-83.698-28.258-128-32 41.824 43.020 77.824 90.354 108 142 57.334 1.334 114.666 1.334 172 0-16.394-17.062-33.394-33.396-51-49-1-3-2-6-3-9 3.48-14.484 12.148-19.15 26-14 71.75 58.48 121.416 132.148 149 221 33.662 5.344 55.996 24.010 67 56 0 56 0 112 0 168zM555 879c111.608-10.138 204.942-57.138 280-141-57.334-1.334-114.666-1.334-172 0-29.982 51.64-65.982 98.64-108 141zM509 877c19.882-16.213 38.216-34.213 55-54 21.884-27.218 42.218-55.551 61-85-76-1.334-152-1.334-228 0 31.832 50.601 69.164 96.935 112 139zM159 705c60.682 0.666 121.348 0 182-2-19.104-36.628-35.104-74.628-48-114-64.656-2.334-129.323-2.666-194-1 15.589 41.516 35.589 80.516 60 117zM377 705c89.344 0.666 178.676 0 268-2 19.416-36.828 36.082-74.828 50-114-122.666-2.666-245.334-2.666-368 0 14.488 39.64 31.156 78.306 50 116zM681 703c60.338 2.66 121.006 2.66 182 0 24.966-35.592 44.966-73.926 60-115-64.676-1.666-129.344-1.334-194 1-12.93 39.504-28.93 77.504-48 114zM59 555c301.334 0.334 602.668 0 904-1 18.072-6.74 27.738-19.74 29-39 1.878-48.072 1.21-96.072-2-144-5-13-14-22-27-27-301.334-1.334-602.666-1.334-904 0-13 5-22 14-27 27-2.212 25.922-3.212 51.922-3 78-0.212 26.078 0.788 52.078 3 78 5.375 13.038 14.375 22.372 27 28zM99 309c64.338 2.66 129.006 2.66 194 0 12.896-39.372 28.896-77.372 48-114-60.666-2.666-121.334-2.666-182 0-24.765 35.532-44.765 73.532-60 114zM327 311c122.674 0.666 245.34 0 368-2-13.918-39.172-30.584-77.172-50-114-89.334-2.666-178.666-2.666-268 0-19.994 37.314-36.662 75.98-50 116zM729 311c64.67 0.334 129.336 0 194-1-14.42-41.372-34.42-79.706-60-115-60.656-2.334-121.322-2.666-182-1 19.326 37.644 35.326 76.644 48 117zM187 159c56.994 2.328 114.328 2.66 172 1 30.176-51.646 66.176-98.98 108-142-85.344 7.992-161.344 38.658-228 92-17.676 16.010-35.010 32.344-52 49zM397 159c75.662 2.328 151.662 2.662 228 1-31.566-51.376-69.566-97.71-114-139-44.224 41.272-82.224 87.272-114 138z" />
<glyph unicode="&#xe913;" d="M197 521c7.514 0.858 14.514-0.474 21-4 9.626-25.56 19.626-50.892 30-76 8.546 25.642 17.88 50.974 28 76 6.512 3.858 13.512 4.858 21 3 3.098-2.428 5.43-5.428 7-9 8.666-24 17.334-48 26-72 8.546 25.642 17.88 50.974 28 76 6.618 6.294 14.284 7.626 23 4 5.614-5.556 7.28-12.222 5-20-14.11-39.552-28.778-78.886-44-118-9.33-5.912-17.996-5.244-26 2-8.96 24.89-18.294 49.556-28 74-9.060-23.848-17.728-47.848-26-72-5.91-7.554-13.576-9.886-23-7-4.234 3.462-7.234 7.796-9 13-13.666 38.334-27.334 76.666-41 115 0.987 6.016 3.654 11.016 8 15z" />
<glyph unicode="&#xe914;" d="M421 521c8.206 1.462 15.206-0.538 21-6 8.94-24.822 18.274-49.488 28-74 8.394 21.846 16.394 43.846 24 66 6.714 15.25 16.714 17.918 30 8 9.726-24.512 19.060-49.178 28-74 9.706 24.444 19.040 49.11 28 74 7.438 6.804 15.772 7.804 25 3 3.858-6.512 4.858-13.512 3-21-14-38-28-76-42-114-8.004-7.244-16.67-7.912-26-2-9.49 24.812-19.156 49.48-29 74-9.844-24.52-19.51-49.188-29-74-6.512-3.858-13.512-4.858-21-3-3.098 2.428-5.43 5.428-7 9-12.94 36.82-26.272 73.486-40 110-2.814 9.888-0.482 17.888 7 24z" />
<glyph unicode="&#xe915;" d="M643 521c8.206 1.462 15.206-0.538 21-6 10.12-25.026 19.454-50.358 28-76 8.666 24 17.334 48 26 72 4.87 9.448 12.538 12.448 23 9 1.832-0.748 3.5-1.748 5-3 10.12-25.026 19.454-50.358 28-76 10.374 25.108 20.374 50.44 30 76 14.54 8.19 24.208 4.522 29-11-14.212-41.306-29.212-82.306-45-123-9.916-8.43-19.25-7.762-28 2-8.272 24.152-16.94 48.152-26 72-9.706-24.444-19.040-49.11-28-74-7.438-6.804-15.772-7.804-25-3-15.776 39.322-30.776 78.988-45 119-2.674 9.168-0.342 16.502 7 22z" />
<glyph unicode="&#xe916;" d="M311 905c-24.884-11.535-50.216-22.535-76-33-11.526-10.207-12.86-21.54-4-34 28.744-13.578 58.078-25.578 88-36 176.060-1.969 352.060-1.302 528 2 17 6.333 28.666 18 35 35 5.356 28.953-4.978 49.953-31 63-71.212 3.294-142.546 3.96-214 2-9.686-8.759-10.354-18.092-2-28 24.516-2.879 49.182-3.879 74-3 0-13.333 0-26.667 0-40-124 0-248 0-372 0 0 13.333 0 26.667 0 40 80.67-0.333 161.336 0 242 1 2 0.667 4 1.333 6 2 8.354 9.908 7.686 19.241-2 28-90.664 1-181.33 1.333-272 1zM741 873c32.674 0.333 65.34 0 98-1 15.184-11.017 15.85-23.017 2-36-2.666-0.667-5.334-1.333-8-2-30.66-1-61.326-1.333-92-1 0 13.333 0 26.667 0 40zM301 865c2.588-3.096 3.922-7.096 4-12-0.334-4-0.666-8-1-12-9.152 4.077-18.152 8.41-27 13 8.288 3.518 16.288 7.185 24 11z" />
<glyph unicode="&#xe917;" d="M1023 705c0-232 0-464 0-696-2.966-7.294-8.3-12.294-16-15-228.162-1.992-456.162-1.326-684 2-8 8.666-8 17.334 0 26 2 0.666 4 1.334 6 2 221.332 1 442.666 1.334 664 1 0 221.334 0 442.666 0 664-8 0-16 0-24 0 0.334-50.004 0-100.004-1-150-7.784-11.518-17.118-12.852-28-4-2.974 69.826-3.974 139.826-3 210-302.666 0-605.334 0-908 0 0-222 0-444 0-666 302.666 0 605.334 0 908 0-0.334 134.002 0 268.002 1 402 6.026 10.070 14.36 12.404 25 7 2.402-1.806 4.070-4.138 5-7 1.334-138 1.334-276 0-414-4.030-10.694-11.698-17.028-23-19-286.666-1-573.332-1.334-860-1 0-7.334 0-14.666 0-22 62.792 0.956 125.458-0.044 188-3 8.852-10.882 7.518-20.216-4-28-66-1.334-132-1.334-198 0-8.333 3-14 8.666-17 17-0.999 11.982-1.332 23.982-1 36-13.461-0.548-26.794 0.452-40 3-5.715 3.388-10.382 7.722-14 13 0 232.666 0 465.334 0 698 4.594 7.573 11.261 12.573 20 15 310 1.333 620 1.333 930 0 7.372-2.177 13.038-6.511 17-13 2.768-13.822 3.768-27.822 3-42 12.684 0.332 25.35 0 38-1 7.7-2.706 13.034-7.706 16-15zM183 673c30.988-1.988 48.988-18.32 54-49-8.828-40.18-32.828-54.18-72-42-24.101 16.316-30.434 37.982-19 65 8.523 14.402 20.856 23.068 37 26zM719 613c39.334 0 78.666 0 118 0 0-11.334 0-22.666 0-34-39.334 0-78.666 0-118 0 0 11.334 0 22.666 0 34zM377 547c40 0 80 0 120 0 0-11.334 0-22.666 0-34-40 0-80 0-120 0 0 11.334 0 22.666 0 34zM129 427c39.333 0 78.666 0 118 0 0-12 0-24 0-36-39.334 0-78.667 0-118 0 0 12 0 24 0 36zM719 427c39.334 0 78.666 0 118 0 0-12 0-24 0-36-39.334 0-78.666 0-118 0 0 12 0 24 0 36zM377 307c40 0 80 0 120 0 0-12 0-24 0-36-40 0-80 0-120 0 0 12 0 24 0 36zM719 239c39.334 0 78.666 0 118 0 0-11.334 0-22.666 0-34-39.334 0-78.666 0-118 0 0 11.334 0 22.666 0 34zM129 231c39.333 0 78.666 0 118 0 0-11.334 0-22.666 0-34-39.334 0-78.667 0-118 0 0 11.334 0 22.666 0 34z" />
<glyph unicode="&#xe918;" d="M183 705c51.812-2.552 80.48-29.552 86-81-2.954-41.264-24.288-66.93-64-77 0-29.334 0-58.666 0-88 21.49 0.858 42.824-0.142 64-3 9.096-8.264 12.43-18.598 10-31 47.334 0 94.666 0 142 0 0 18.666 0 37.334 0 56-20.678-0.332-41.344 0-62 1-7.33 3.336-11.664 9.002-13 17-1.334 20.666-1.334 41.334 0 62 1.336 7.998 5.67 13.664 13 17 52 1.334 104 1.334 156 0 8.042-3.736 12.374-10.070 13-19 1.334-19.334 1.334-38.666 0-58-0.604-9.926-5.604-16.258-15-19-19.988-1-39.988-1.332-60-1 0-48 0-96 0-144 20.678 0.332 41.344 0 62-1 10.992-7.256 15.66-17.59 14-31 21.334 0 42.666 0 64 0-0.952 96.744 0.048 193.41 3 290 3.614 11.614 11.28 19.282 23 23 22.656 1 45.324 1.334 68 1-1.126 11.654 3.54 19.988 14 25 52 1.334 104 1.334 156 0 5-2.334 8.666-6 11-11 1.334-24.666 1.334-49.334 0-74-2.502-5.762-6.834-9.428-13-11-51.334-1.334-102.666-1.334-154 0-4.248 2.244-7.914 5.244-11 9-2.65 9.802-3.65 19.802-3 30-20.852 1.254-41.186-0.080-61-4-1-52.662-1.334-105.33-1-158 20.666 0 41.334 0 62 0-2.87 15.256 2.464 26.256 16 33 50 1.334 100 1.334 150 0 6.826-2.154 11.826-6.488 15-13 1.334-24 1.334-48 0-72-3.736-8.042-10.070-12.374-19-13-47.334-1.334-94.666-1.334-142 0-10.31 1.308-16.644 6.974-19 17-0.994 5.292-1.328 10.626-1 16-20.666 0-41.334 0-62 0-0.334-52.004 0-104.004 1-156 0.748-1.832 1.748-3.5 3-5 19.322-1 38.656-1.332 58-1-3.016 15.452 0.984 28.452 12 39 52.666 1.334 105.334 1.334 158 0 5-2.334 8.666-6 11-11 1.334-24.666 1.334-49.334 0-74-2.502-5.762-6.834-9.428-13-11-50.666-1.334-101.334-1.334-152 0-11.084 4.472-16.418 12.804-16 25-21.344-0.334-42.678 0-64 1-12.618 3.276-21.618 10.942-27 23-2.66 16.546-3.66 33.214-3 50-21.334 0-42.666 0-64 0 0.894-10.766-1.772-20.434-8-29-2.666-1.334-5.334-2.666-8-4-50.666-1.334-101.334-1.334-152 0-8.54 2.54-13.54 8.208-15 17-1.824 23.45-1.158 46.784 2 70 3.086 3.756 6.752 6.756 11 9 20.656 1 41.322 1.332 62 1 0 18.666 0 37.334 0 56-47.334 0-94.666 0-142 0 0.33-6.7-0.004-13.366-1-20-2.334-5-6-8.666-11-11-20.536-2.798-41.204-3.798-62-3 0-32 0-64 0-96 20.012 0.332 40.012 0 60-1 6.334-2.334 10.666-6.666 13-13 1.334-24 1.334-48 0-72-2.334-5-6-8.666-11-11-52.666-1.334-105.333-1.334-158 0-5.761 2.502-9.428 6.834-11 13-1.878 24.808-1.211 49.476 2 74 3.086 3.756 6.752 6.756 11 9 20.656 1 41.323 1.332 62 1 0 32 0 64 0 96-18.679-0.332-37.345 0-56 1-9.875 0.544-16.209 5.544-19 15-1.333 22.666-1.333 45.334 0 68 1.38 5.392 4.38 9.726 9 13 21.845 2.862 43.845 3.862 66 3 0.333 28.674 0 57.342-1 86-50.939 16.52-70.939 51.186-60 104 12.384 33.318 36.051 51.984 71 56zM183 673c-16.144-2.932-28.477-11.598-37-26-11.434-27.018-5.101-48.684 19-65 39.172-12.18 63.172 1.82 72 42-5.012 30.68-23.012 47.012-54 49zM719 613c0-11.334 0-22.666 0-34 39.334 0 78.666 0 118 0 0 11.334 0 22.666 0 34-39.334 0-78.666 0-118 0zM377 547c0-11.334 0-22.666 0-34 40 0 80 0 120 0 0 11.334 0 22.666 0 34-40 0-80 0-120 0zM129 427c0-12 0-24 0-36 39.333 0 78.666 0 118 0 0 12 0 24 0 36-39.334 0-78.667 0-118 0zM719 427c0-12 0-24 0-36 39.334 0 78.666 0 118 0 0 12 0 24 0 36-39.334 0-78.666 0-118 0zM377 307c0-12 0-24 0-36 40 0 80 0 120 0 0 12 0 24 0 36-40 0-80 0-120 0zM719 239c0-11.334 0-22.666 0-34 39.334 0 78.666 0 118 0 0 11.334 0 22.666 0 34-39.334 0-78.666 0-118 0zM129 231c0-11.334 0-22.666 0-34 39.333 0 78.666 0 118 0 0 11.334 0 22.666 0 34-39.334 0-78.667 0-118 0z" />
<glyph unicode="&#xe919;" d="M319 669c24.636 1.684 30.636-7.982 18-29-19.666-4.334-27.334 3.334-23 23 2.090 1.746 3.756 3.746 5 6z" />
<glyph unicode="&#xe91a;" d="M359 669c65.336 0.334 130.67 0 196-1 10.486-9.176 10.486-18.51 0-28-65.334-1.334-130.666-1.334-196 0-10.55 9.756-10.55 19.422 0 29z" />
<glyph unicode="&#xe91b;" d="M319 195c24.636 1.684 30.636-7.982 18-29-19.666-4.334-27.334 3.334-23 23 2.090 1.746 3.756 3.746 5 6z" />
<glyph unicode="&#xe91c;" d="M359 195c65.336 0.334 130.67 0 196-1 10.486-9.176 10.486-18.51 0-28-65.334-1.334-130.666-1.334-196 0-10.55 9.756-10.55 19.422 0 29z" />
<glyph unicode="&#xe91d;" d="M265 929c-44.596-45.597-89.597-90.931-135-136-1.333-3.333-1.333-6.667 0-10 123.612-125.612 247.944-250.612 373-375 5.334-4 10.666-4 16 0 125.056 124.388 249.388 249.388 373 375 1.334 3.333 1.334 6.667 0 10-45 45-90 90-135 135-163.998 1-327.998 1.333-492 1zM275 907c52.004 0.333 104.004 0 156-1-35.334-35.333-70.666-70.667-106-106-52-1.333-104-1.333-156 0 35.736 35.403 71.070 71.070 106 107zM465 907c30.674 0.333 61.34 0 92-1 35.39-36.058 71.39-71.391 108-106-102.666-1.333-205.334-1.333-308 0 37.012 34.679 73.012 70.346 108 107zM591 905c51.66 2.327 103.66 2.66 156 1 35.334-35.333 70.666-70.667 106-106-52-1.333-104-1.333-156 0-35.070 35.403-70.402 70.403-106 105zM467 479c-99.598 98.598-198.93 197.598-298 297 50.666 1.333 101.334 1.333 152 0 49.488-98.644 98.156-197.644 146-297zM347 777c109.342 0.667 218.674 0 328-2-54.154-110.31-108.822-220.31-164-330-55.056 110.522-109.724 221.188-164 332zM555 479c47.844 99.356 96.512 198.356 146 297 50.666 1.333 101.334 1.333 152 0-99.070-99.402-198.402-198.402-298-297z" />
<glyph unicode="&#xe91e;" d="M1023 193c0-4.666 0-9.334 0-14-5.588-5.122-11.588-6.122-18-3-40.666 39.334-81.334 78.666-122 118-25.444 19.038-54.112 28.704-86 29-110.696-5.192-221.364-10.858-332-17-41.27-10.268-63.27-36.6-66-79 2.73-42.4 24.73-68.732 66-79 67.412-0.070 134.746-1.404 202-4 22.004-5.018 36.67-18.018 44-39 0.22-3.748-1.112-6.748-4-9-4.666-1.334-9.334-1.334-14 0-9.448 17.398-24.116 26.732-44 28-63.334 0.666-126.666 1.334-190 2-35.89 8.22-61.224 29.22-76 63-15.44 1.202-30.772 2.868-46 5-68.752 57.424-138.086 114.090-208 170-35.179 17.498-66.179 11.832-93-17-18.411-27.11-19.744-55.11-4-84 62.734-66.064 124.734-132.732 186-200 22.21-24.606 49.876-38.94 83-43 150-0.666 300-1.334 450-2 23.638-3.984 43.304-14.984 59-33 2.648-14.010-3.020-19.010-17-15-12.534 14.936-28.534 23.602-48 26-150 0.666-300 1.334-450 2-29.182 4.262-55.182 15.596-78 34-66.333 70.334-132.667 140.666-199 211-9.105 12.202-15.438 25.536-19 40 0 12.666 0 25.334 0 38 19.915 60.308 61.248 83.974 124 71 11.898-3.946 22.565-9.946 32-18 63.418-53.422 127.418-106.088 192-158 9.978-0.998 19.978-1.332 30-1-2.826 55.48 21.842 92.48 74 111 9.208 2.122 18.542 3.454 28 4 105.67 4.936 211.336 9.936 317 15 37.3-0.212 70.966-11.212 101-33 41.3-40.606 83.3-80.272 126-119z" />
<glyph unicode="&#xe91f;" d="M415 919c15.348 0.333 30.682-0.001 46-1 4-1.333 8-2.667 12-4 11.27-9.267 21.936-19.267 32-30 4.434-2.551 9.102-4.551 14-6 28.666-0.667 57.334-1.333 86-2 15.954-3.95 26.954-13.617 33-29 1.334-23.333 1.334-46.667 0-70-4.516-15.778-14.85-25.444-31-29-64-1.334-128-1.334-192 0-16.15 3.556-26.484 13.222-31 29-1.334 37.333-1.334 74.667 0 112 5.006 15.642 15.34 25.642 31 30z" />
<glyph unicode="&#xe920;" d="M499 727c8 0 16 0 24 0 0-18 0-36 0-54 30.674 0.334 61.34 0 92-1 40.028-9.028 65.362-33.362 76-73-7.918-2.32-15.918-2.654-24-1-8.856 25.524-26.19 42.19-52 50-34.582 2.262-69.25 3.262-104 3-34.75 0.262-69.418-0.738-104-3-25.81-7.81-43.144-24.476-52-50-8.082-1.654-16.082-1.32-24 1 10.638 39.638 35.972 63.972 76 73 30.66 1 61.326 1.334 92 1 0 18 0 36 0 54z" />
<glyph unicode="&#xe921;" d="M241 577c68.124 0.958 136.124-0.042 204-3 11.688-6.326 19.354-15.992 23-29 1.87-23.476 1.204-46.81-2-70-4.964-12.656-13.964-20.988-27-25-66-1.334-132-1.334-198 0-15.384 6.046-25.050 17.046-29 33-1.334 20-1.334 40 0 60 4.338 15.996 14.006 27.33 29 34z" />
<glyph unicode="&#xe922;" d="M583 577c66.004 0.334 132.004 0 198-1 15.384-6.046 25.050-17.046 29-33 1.334-20 1.334-40 0-60-3.95-15.954-13.616-26.954-29-33-68.12-1.958-136.12-1.292-204 2-11.688 6.326-19.354 15.992-23 29-1.334 21.334-1.334 42.666 0 64 3.894 16.214 13.56 26.88 29 32z" />
<glyph unicode="&#xe923;" d="M329 429c7.334 0 14.666 0 22 0 0-86 0-172 0-258-7.334 0-14.666 0-22 0 0 32 0 64 0 96-42.006 0.334-84.006 0-126-1-30.081-5.516-50.415-22.516-61-51-2.864-29.216-3.864-58.55-3-88-8 0-16 0-24 0-0.333 26.008 0 52.008 1 78 7.711 44.484 33.378 72.15 77 83 45.328 1 90.662 1.334 136 1 0 46.666 0 93.334 0 140z" />
<glyph unicode="&#xe924;" d="M671 429c7.334 0 14.666 0 22 0 0-14.666 0-29.334 0-44-7.334 0-14.666 0-22 0 0 14.666 0 29.334 0 44z" />
<glyph unicode="&#xe925;" d="M589 365c64.766 0.942 129.432-0.058 194-3 12.334-4.334 20.666-12.666 25-25 4-24.666 4-49.334 0-74-5.188-13.856-14.854-22.856-29-27-66.788-1.958-133.454-1.29-200 2-12.64 5.972-20.974 15.638-25 29-1.334 22-1.334 44 0 66 5.722 17.396 17.388 28.064 35 32z" />
<glyph unicode="&#xe926;" d="M671 215c7.334 0 14.666 0 22 0 0-3.334 0-6.666 0-10 42.672 0.334 85.338 0 128-1 44.010-7.008 72.010-32.008 84-75-8.566-1.984-17.232-2.652-26-2-6.622 25.628-22.622 42.628-48 51-45.894 2.916-91.894 3.916-138 3 0-4 0-8 0-12-6.71 2.236-13.376 2.236-20 0-1.994 15.276-2.662 30.608-2 46z" />
<glyph unicode="&#xe927;" d="M243 151c64.67 0.334 129.336 0 194-1 15.666-5 26-15.334 31-31 1.334-36 1.334-72 0-108-5-15.666-15.334-26-31-31-64.666-1.334-129.334-1.334-194 0-17.372 5.374-27.706 17.042-31 35-1.334 33.334-1.334 66.666 0 100 3.678 17.994 14.012 29.994 31 36z" />
<glyph unicode="&#xe928;" d="M667 151c51.356 3.594 84.356-19.072 99-68 6.34-54.28-16.66-88.612-69-103-49.684-4.95-82.684 16.050-99 63-8.094 56.182 14.906 92.182 69 108z" />
<glyph unicode="&#xe929;" d="M119 109c35.625 0.71 52.625-16.624 51-52-9.188-29.432-28.855-40.432-59-33-23.828 12.004-32.161 31.004-25 57 6.565 14.752 17.565 24.086 33 28z" />
<glyph unicode="&#xe92a;" d="M887 109c35.624 0.71 52.624-16.624 51-52-9.188-29.432-28.854-40.432-59-33-23.828 12.004-32.162 31.004-25 57 6.566 14.752 17.566 24.086 33 28z" />
<glyph unicode="&#xe92b;" d="M189 77c2.291-7.622 2.624-15.622 1-24-0.998 7.972-1.331 15.972-1 24z" />
<glyph unicode="&#xe92c;" d="M489 77c29.334 0 58.666 0 88 0 0-8 0-16 0-24-29.334 0-58.666 0-88 0 0 8 0 16 0 24z" />
<glyph unicode="&#xe92d;" d="M787 77c15.334 0 30.666 0 46 0 0-8 0-16 0-24-15.334 0-30.666 0-46 0 0 8 0 16 0 24z" />
<glyph unicode="&#xe92e;" d="M475 849c-24.97-4.077-49.636-10.411-74-19-124.038-54.363-188.704-149.362-194-285 5.296-135.638 69.962-230.638 194-285 115.29-39.070 219.624-20.070 313 57 14.696-14.362 29.030-29.028 43-44-7.372-7.704-14.372-15.704-21-24-1.634-6.928-0.966-13.596 2-20 59-59 118-118 177-177 8-4 16-4 24 0 21.666 21.666 43.334 43.334 65 65 4 8 4 16 0 24-59 59-118 118-177 177-6.404 2.966-13.072 3.634-20 2-8.296-6.628-16.296-13.628-24-21-14.972 13.97-29.638 28.304-44 43 31.962 36.244 54.296 77.91 67 125 19.91 80.628 9.91 157.296-30 230-69.812 109.742-170.144 160.408-301 152zM509 817c112.296-5.278 194.63-57.278 247-156 45.17-108.482 30.504-207.814-44-298-82.824-83.122-180.49-107.456-293-73-69.392 26.058-120.392 72.392-153 139-44.788 107.144-30.788 205.81 42 296 54.58 57.858 121.58 88.524 201 92zM495 687c53.976 3.024 79.642-22.31 77-76-8.574-30.298-28.574-46.964-60-50-46.578 6.458-67.244 33.124-62 80 7.368 23.032 22.368 38.366 45 46zM463 529c32.006 0.334 64.006 0 96-1 47.666-5 74-31.334 79-79 1.334-13.334 1.334-26.666 0-40-14.42-8.81-30.086-14.476-47-17-62.326-9.464-124.326-7.464-186 6-6.904 2.452-13.57 5.452-20 9-4.848 29.22-1.182 57.22 11 84 16.43 23.374 38.762 36.040 67 38zM813 279c51.164-48.162 101.498-97.494 151-148 1.334-1.334 1.334-2.666 0-4-11.666-11.666-23.334-23.334-35-35-1.334-1.334-2.666-1.334-4 0-49 49-98 98-147 147-1.334 1.334-1.334 2.666 0 4 12.072 11.738 23.74 23.738 35 36z" />
<glyph unicode="&#xe92f;" d="M-1 393c0 26 0 52 0 78 11.661 46.88 40.995 76.546 88 89-21.198 24.444-28.865 52.778-23 85 17.308 56.842 55.641 81.842 115 75 14.949-2.142 27.616-8.474 38-19-6.206-9.104-12.872-17.772-20-26-26.15 16.148-52.15 15.814-78-1-18.827-16.946-25.827-37.946-21-63 8.47-31.070 28.804-47.070 61-48 0-11.334 0-22.666 0-34-21.414 0.552-42.747-0.448-64-3-29.122-7.12-48.788-24.788-59-53-4.896-21.82-5.896-43.82-3-66 24.035-11.276 49.368-17.61 76-19 37.972-2.942 75.972-2.61 114 1 0.814-11.322 1.48-22.656 2-34-54.196-3.912-108.196-2.244-162 5-16.040 3.346-31.374 8.68-46 16-7.053 4.724-13.053 10.392-18 17z" />
<glyph unicode="&#xe930;" d="M491 721c59.32 5.872 97.652-19.462 115-76 5.866-32.222-1.802-60.556-23-85 47.12-11.878 76.12-41.544 87-89 1.334-26 1.334-52 0-78-5.892-9.89-14.224-16.89-25-21-26.954-10.716-54.954-16.716-84-18-48.896-2.716-97.564-0.716-146 6-18.61 3.534-35.944 10.2-52 20-4.418 3.746-8.084 8.080-11 13-1.334 26-1.334 52 0 78 10.86 47.374 39.86 77.042 87 89-21.198 24.444-28.866 52.778-23 85 10.698 39.696 35.698 65.030 75 76zM495 687c-22.632-7.634-37.632-22.968-45-46-5.244-46.876 15.422-73.542 62-80 31.426 3.036 51.426 19.702 60 50 2.642 53.69-23.024 79.024-77 76zM463 529c-28.238-1.96-50.57-14.626-67-38-12.182-26.78-15.848-54.78-11-84 6.43-3.548 13.096-6.548 20-9 61.674-13.464 123.674-15.464 186-6 16.914 2.524 32.58 8.19 47 17 1.334 13.334 1.334 26.666 0 40-5 47.666-31.334 74-79 79-31.994 1-63.994 1.334-96 1z" />
<glyph unicode="&#xe931;" d="M1023 471c0-26 0-52 0-78-4.946-6.608-10.946-12.276-18-17-29.114-13.612-59.78-20.944-92-22-38.698-1.482-77.364-1.15-116 1 0.52 11.344 1.186 22.678 2 34 38.028-3.61 76.028-3.942 114-1 16.218 1.37 32.218 4.036 48 8 10.608 2.416 20.274 6.75 29 13 1.856 21.546 0.522 42.88-4 64-10.212 28.212-29.878 45.88-59 53-21.254 2.552-42.586 3.552-64 3 0 11.334 0 22.666 0 34 19.634-0.016 35.968 7.318 49 22 17.334 26.666 17.334 53.334 0 80-17.594 19.156-39.262 26.156-65 21-7.892-2.612-15.224-6.278-22-11-7.128 8.228-13.794 16.896-20 26 10.384 10.526 23.050 16.858 38 19 59.36 6.842 97.692-18.158 115-75 5.866-32.222-1.802-60.556-23-85 46.986-12.372 76.32-42.038 88-89z" />
<glyph unicode="&#xe932;" d="M113 881c-32.045-5.705-52.379-24.372-61-56-1.333-179.334-1.333-358.666 0-538 6.982-28.316 24.649-45.982 53-53 113.332-1 226.664-1.334 340-1 0-28.666 0-57.334 0-86-66.952-19.316-133.62-39.65-200-61-2.204-4.802-2.538-9.802-1-15 15.038-18.364 30.706-36.030 47-53 54.292 13.644 108.292 28.978 162 46 38.666 1.334 77.334 1.334 116 0 52.608-15.87 105.274-31.536 158-47 3.374 0.52 6.374 1.854 9 4 14 16.666 28 33.334 42 50 1.538 5.198 1.204 10.198-1 15-66.358 21.342-133.026 41.676-200 61 0 28.666 0 57.334 0 86 113.336-0.334 226.668 0 340 1 28.334 7 46 24.666 53 53 1.334 179.334 1.334 358.666 0 538-8.328 31.662-28.662 49.995-61 55-265.332 1-530.666 1.333-796 1zM111 857c266.668 0.333 533.334 0 800-1 19.886-5.884 32.218-18.884 37-39 1.334-174 1.334-348 0-522-5.228-21.896-18.896-34.896-41-39-264-1.334-528-1.334-792 0-22.105 4.104-35.771 17.104-41 39-1.333 174-1.333 348 0 522 5.155 20.149 17.489 33.483 37 40zM123 807c258.666 0 517.334 0 776 0 0-167.334 0-334.666 0-502-258.666 0-517.334 0-776 0 0 167.334 0 334.666 0 502zM467 233c29.334 0 58.666 0 88 0 0-48 0-96 0-144-29.334 0-58.666 0-88 0 0 48 0 96 0 144zM441 123c3.912-11.824 5.246-24.49 4-38-47.856-13.216-95.522-27.216-143-42-9.652 8.892-18.652 18.558-27 29 55.74 16.476 111.074 33.476 166 51zM577 123c56.692-16.784 113.358-33.784 170-51-7.42-11.204-16.42-20.87-27-29-47.478 14.784-95.144 28.784-143 42 0 12.666 0 25.334 0 38z" />
<glyph unicode="&#xe933;" d="M119 831c264.086 0.986 528.086-0.014 792-3 3.756-3.086 6.756-6.752 9-11 1.99-175.496 1.322-350.83-2-526-2.428-3.098-5.428-5.43-9-7-266.828-1.992-533.494-1.326-800 2-3.098 2.428-5.431 5.428-7 9-1.333 174-1.333 348 0 522 3.732 7.432 9.398 12.099 17 14zM123 807c0-167.334 0-334.666 0-502 258.666 0 517.334 0 776 0 0 167.334 0 334.666 0 502-258.666 0-517.334 0-776 0z" />
<glyph unicode="&#xe934;" d="M539 699c16.010 2.316 21.678-4.35 17-20-22.978-84.58-45.644-169.246-68-254-3.774-12.358-11.108-15.024-22-8-1.334 5.334-1.334 10.666 0 16 23.352 89.042 47.686 177.708 73 266z" />
<glyph unicode="&#xe935;" d="M169 647c6.37 0.96 12.037-0.372 17-4 0.667-36.666 1.333-73.334 2-110 4.919-26.918 20.918-42.252 48-46 24.478 3.144 40.478 16.478 48 40 0.666 38 1.334 76 2 114 1.516 4.82 4.85 6.82 10 6 4.068 0.292 7.402-1.040 10-4 2.256-19.192 3.256-38.526 3-58 0.152-22.072-0.848-44.072-3-66-13.468-39.584-41.136-57.25-83-53-31 7-50 26-57 57-1.333 40-1.333 80 0 120 1.434 1.088 2.434 2.422 3 4z" />
<glyph unicode="&#xe936;" d="M335 647c6.37 0.96 12.038-0.372 17-4 12.028-21.414 25.028-42.080 39-62 14.25 21.496 28.25 43.164 42 65 13.876 4.12 19.542-0.88 17-15-15.264-24.866-30.264-49.866-45-75 14.736-25.134 29.736-50.134 45-75 0.382-15.608-6.284-19.608-20-12-13.334 21.334-26.666 42.666-40 64-12.498-21.666-25.498-43-39-64-14.908-7.364-21.242-2.698-19 14 14.75 24.5 29.75 48.834 45 73-15.754 24.502-30.754 49.502-45 75-1.782 5.996-0.782 11.328 3 16z" />
<glyph unicode="&#xe937;" d="M589 647c7.026 1.248 12.694-0.752 17-6 0.094-40.768 1.428-81.436 4-122 18.14-31.958 43.14-38.958 75-21 7.892 6.774 13.56 15.108 17 25 0.666 38 1.334 76 2 114 0.546 3.658 2.214 6.658 5 9 5.198 1.538 10.198 1.204 15-1 3.284-39.82 3.95-79.82 2-120-6.334-33-26-52.666-59-59-46.044-3.296-73.712 17.704-83 63-1.334 36.666-1.334 73.334 0 110 1.324 2.968 2.992 5.634 5 8z" />
<glyph unicode="&#xe938;" d="M759 647c31.34 0.334 62.674 0 94-1 5.244-6.26 5.244-12.594 0-19-11.878-1.914-23.878-2.58-36-2 0-46 0-92 0-138 12.018 0.332 24.018-0.002 36-1 5.666-7.326 5-13.992-2-20-30.666-1.334-61.334-1.334-92 0-5.334 6.666-5.334 13.334 0 20 11.982 0.998 23.982 1.332 36 1 0 46 0 92 0 138-12.018-0.332-24.018 0.002-36 1-5.24 6.996-5.24 13.996 0 21z" />
<glyph unicode="&#xe939;" d="M907 837c-1.334 0-2-0.667-2-2-1.334 0-2-0.667-2-2-26.322-25.988-52.988-51.655-80-77-4-1.334-8-1.334-12 0-41.618 13.821-83.286 27.488-125 41-45.452-34.566-91.12-68.9-137-103-19.754-0.882-26.088 8.118-19 27 47.666 37 95.334 74 143 111 5.334 1.333 10.666 1.333 16 0 36.792-11.597 73.458-23.597 110-36 5.252-1.99 10.586-2.657 16-2 31.392 30.724 62.058 62.057 92 94-13.784 5.702-17.45 15.369-11 29 1.806 2.403 4.138 4.070 7 5 19.244 3.144 38.576 4.477 58 4 7.47-3.599 10.804-9.599 10-18-1.46-17.156-3.794-34.156-7-51-9.848-10.512-19.848-10.512-30 0-0.666 2-1.334 4-2 6-8.74-8.404-17.074-17.071-25-26z" />
<glyph unicode="&#xe93a;" d="M903 833c-2.318-116.586-2.65-233.252-1-350 1.666-4.334 4.666-7.334 9-9 28.666-1.334 57.334-1.334 86 0 3.572 1.57 6.572 3.902 9 7 1.334 116 1.334 232 0 348-0.93 2.862-2.598 5.195-5 7-31.262 3.664-62.594 3.998-94 1 0-1.333-0.666-2-2-2 0-1.333-0.666-2-2-2zM935 805c13.334 0 26.666 0 40 0 0-99.334 0-198.666 0-298-13.334 0-26.666 0-40 0 0 99.334 0 198.666 0 298z" />
<glyph unicode="&#xe93b;" d="M253 793c74.112 4.143 125.112-27.857 153-96 16.88-65.7-1.454-119.034-55-160 23.594-8.962 45.926-20.296 67-34 19.596 21.952 42.596 39.286 69 52 1.666 26.642 2.666 53.308 3 80 0.568 7.24 4.234 12.24 11 15 30.136 1.902 60.136 1.234 90-2 2.402-1.806 4.070-4.138 5-7 1-21.322 1.334-42.656 1-64 10.014-0.502 20.014-1.168 30-2-0.334 52.004 0 104.004 1 156 1.57 3.572 3.902 6.572 7 9 30 1.334 60 1.334 90 0 2.862-0.93 5.194-2.598 7-5 2.628-71.214 3.962-142.546 4-214 9.402-8.732 18.068-18.066 26-28 0.666 68.666 1.334 137.334 2 206 1.548 4.878 4.548 8.546 9 11 29.334 1.334 58.666 1.334 88 0 2.862-0.93 5.194-2.598 7-5 3.308-73.83 3.974-147.83 2-222-1.666-4.334-4.666-7.334-9-9-28.024-0.334-56.024-1.334-84-3 44.562-77.524 45.228-155.524 2-234 14.032-15.7 29.032-30.366 45-44 14.178 4.18 27.178 1.848 39-7 40.246-38.314 79.912-77.314 119-117 7.15-14.464 6.482-28.464-2-42-16.358-15.758-32.024-32.092-47-49-13.672-8.336-27.672-9.002-42-2-42.882 38.88-84.55 79.212-125 121-5.248 10.64-6.248 21.64-3 33-13.764 14.768-28.43 28.434-44 41-69.526-46.512-143.526-54.846-222-25-66.982 29.962-109.648 80.296-128 151-114.668-0.334-229.335 0-344 1-3.572 1.57-6.572 3.902-9 7 6.273 93.546 49.94 163.878 131 211 15.541 7.77 31.541 14.438 48 20-56.638 43.922-74.304 100.254-53 169 21.841 48.72 58.84 78.054 111 88zM257 759c72.322 1.008 112.988-34.326 122-106-6.648-63.982-41.982-99.314-106-106-57.766 4.77-92.766 35.438-105 92-2.692 64.274 26.974 104.274 89 120zM661 709c13.334 0 26.666 0 40 0 0.666-54.016 0-108.016-2-162-11.69 7.346-24.024 13.346-37 18-1 47.996-1.334 95.996-1 144zM797 677c13.334 0 26.666 0 40 0 0-56.666 0-113.334 0-170-13.334 0-26.666 0-40 0 0 56.666 0 113.334 0 170zM523 617c13.334 0 26.666 0 40 0 0.66-13.4-0.006-26.732-2-40-12.158-1.898-24.158-4.566-36-8-1.996 15.944-2.662 31.944-2 48zM561 543c95.908 5.574 163.574-35.094 203-122 26.086-78.646 10.418-147.646-47-207-65.202-55.308-137.202-65.976-216-32-82.26 47.532-115.926 118.532-101 213 16.796 63.454 55.13 108.454 115 135 15.326 5.324 30.658 9.656 46 13zM245 513c55.424 5.478 106.092-7.19 152-38-27.882-43.418-39.216-90.752-34-142-103.992-2-207.991-2.666-312-2 25.375 102.712 90.041 163.38 194 182zM571 497c84.324 0.354 136.658-40.314 157-122 6.088-71.5-22.912-123.166-87-155-76.422-24.308-136.754-3.308-181 63-34.068 78.070-17.068 142.404 51 193 19.062 10.462 39.062 17.462 60 21zM655 407c9.914 0.476 12.914-3.524 9-12-31.666-31.666-63.334-63.334-95-95-2.666-1.334-5.334-1.334-8 0-18.334 18.334-36.666 36.666-55 55-1 7 2 10 9 9 13.334-13.334 26.666-26.666 40-40 7.732-4.24 15.066-3.572 22 2 27.134 26.13 53.134 53.13 78 81zM757 207c14.194-11.186 27.528-23.52 40-37-4.334-4.334-8.666-8.666-13-13-12 12-24 24-36 36-1.334 1.334-1.334 2.666 0 4 3.414 3.074 6.414 6.408 9 10zM835 161c10.214-7.864 20.214-16.198 30-25 29.082-29.416 58.414-58.416 88-87-13.97-14.972-28.304-29.638-43-44-38.692 37.026-77.024 74.358-115 112 12.638 15.306 25.972 29.972 40 44z" />
<glyph unicode="&#xe93c;" d="M569 531c83.802 2.624 144.136-33.376 181-108 28.252-78.642 12.586-146.976-47-205-62.65-48.564-129.984-55.896-202-22-68.954 42.246-99.288 103.914-91 185 19.188 86.196 72.188 136.196 159 150zM571 497c-20.938-3.538-40.938-10.538-60-21-68.068-50.596-85.068-114.93-51-193 44.246-66.308 104.578-87.308 181-63 64.088 31.834 93.088 83.5 87 155-20.342 81.686-72.676 122.354-157 122zM655 407c-24.866-27.87-50.866-54.87-78-81-6.934-5.572-14.268-6.24-22-2-13.334 13.334-26.666 26.666-40 40-7 1-10-2-9-9 18.334-18.334 36.666-36.666 55-55 2.666-1.334 5.334-1.334 8 0 31.666 31.666 63.334 63.334 95 95 3.914 8.476 0.914 12.476-9 12z" />
<glyph unicode="&#xe93d;" d="M647 441c31.628 4.558 49.628-8.774 54-40-0.472-8.558-2.806-16.558-7-24-34.392-33.724-68.058-68.056-101-103-15.936-10.2-32.602-11.534-50-4-23.666 21-46 43.334-67 67-10.456 25.972-3.456 45.64 21 59 13.256 4.488 25.924 3.154 38-4 10.298-8.63 20.298-17.63 30-27 23.638 22.638 46.972 45.638 70 69 4.454 1.882 8.454 4.216 12 7zM655 407c-24.866-27.87-50.866-54.87-78-81-6.934-5.572-14.268-6.24-22-2-13.334 13.334-26.666 26.666-40 40-7 1-10-2-9-9 18.334-18.334 36.666-36.666 55-55 2.666-1.334 5.334-1.334 8 0 31.666 31.666 63.334 63.334 95 95 3.914 8.476 0.914 12.476-9 12z" />
<glyph unicode="&#xe93e;" d="M101 961c-3.269-2.943-6.269-6.277-9-10-1.333-334.666-1.333-669.334 0-1004 2.731-3.724 5.731-7.056 9-10 273.334 0 546.666 0 820 0 3.268 2.944 6.268 6.276 9 10 1.334 334.666 1.334 669.334 0 1004-2.732 3.723-5.732 7.057-9 10-273.334 0-546.666 0-820 0zM131 921c253.334 0 506.666 0 760 0 0-274 0-548 0-822-38.852 0.95-77.518-0.050-116-3-1.666-1.666-3.334-3.334-5-5-1-37.994-1.334-75.994-1-114-212.666 0-425.334 0-638 0 0 314.666 0 629.334 0 944zM391 823c56.32-12.812 91.654-47.145 106-103-2.832-4.85-6.5-9.182-11-13-4-7.334-4-14.666 0-22 4.5-3.818 8.168-8.15 11-13-4.272-23.528-14.606-43.862-31-61-14.106 24.080-35.106 37.746-63 41 7.29 6.906 12.29 15.24 15 25 1.802 16.158 1.136 32.158-2 48-12.118 23.222-31.118 32.222-57 27-16.802-4.136-27.802-14.468-33-31-7.042-25.076-2.71-47.742 13-68-25.636-4.476-45.636-17.476-60-39-1.334-1.334-2.666-1.334-4 0-15.346 18.026-25.346 38.692-30 62 13.106 5.46 17.44 15.126 13 29-4.182 5.146-7.85 10.48-11 16 12.666 54 46 87.333 100 100 5.52-3.151 10.854-6.818 16-11 9.304-2.386 17.638-0.719 25 5 1.582 2.49 2.582 5.157 3 8zM889 75c1.992-32.316 2.66-64.982 2-98-32.674-0.334-65.34 0-98 1 32.404 32.070 64.404 64.402 96 97z" />
<glyph unicode="&#xe93f;" d="M363 881c6.036 0.329 12.036-0.004 18-1 5.79-4.946 11.122-10.279 16-16 80.512-15.846 128.18-64.18 143-145 17.598-8.342 21.598-21.010 12-38-4.344-2.17-8.344-4.838-12-8-11.194-66.532-48.194-112.198-111-137-11.112-3.612-22.444-6.278-34-8-7.186-16.744-19.186-21.41-36-14-4.314 3.962-7.648 8.628-10 14-82.286 15.618-131.286 64.618-147 147-14.987 7.166-18.987 18.5-12 34 4.212 3.92 8.546 7.588 13 11 16.334 80.333 64.666 128.667 145 145 4.012 6.342 9.012 11.675 15 16zM391 823c-0.418-2.843-1.418-5.51-3-8-7.362-5.719-15.696-7.386-25-5-5.146 4.182-10.48 7.849-16 11-54-12.667-87.334-46-100-100 3.15-5.52 6.818-10.854 11-16 4.44-13.874 0.106-23.54-13-29 4.654-23.308 14.654-43.974 30-62 1.334-1.334 2.666-1.334 4 0 14.364 21.524 34.364 34.524 60 39-15.71 20.258-20.042 42.924-13 68 5.198 16.532 16.198 26.864 33 31 25.882 5.222 44.882-3.778 57-27 3.136-15.842 3.802-31.842 2-48-2.71-9.76-7.71-18.094-15-25 27.894-3.254 48.894-16.92 63-41 16.394 17.138 26.728 37.472 31 61-2.832 4.85-6.5 9.182-11 13-4 7.334-4 14.666 0 22 4.5 3.818 8.168 8.15 11 13-14.346 55.855-49.68 90.188-106 103z" />
<glyph unicode="&#xe940;" d="M609 761c70.67 0.333 141.336 0 212-1 13.496-6.686 17.162-17.020 11-31-3.274-4.62-7.608-7.62-13-9-69.334-1.334-138.666-1.334-208 0-14.434 5.944-18.766 16.278-13 31 3.46 3.804 7.126 7.138 11 10z" />
<glyph unicode="&#xe941;" d="M609 673c38.006 0.334 76.006 0 114-1 13.448-8.126 16.448-19.126 9-33-3.158-3.082-6.826-5.416-11-7-36.666-1.334-73.334-1.334-110 0-20.584 12.616-21.252 26.284-2 41z" />
<glyph unicode="&#xe942;" d="M365 453c26.684 0.944 44.35-11.056 53-36 1.334-14 1.334-28 0-42-2.478-10.482-8.144-18.816-17-25 34.138-4.802 57.804-23.136 71-55 1.302-3.47 0.97-6.804-1-10-66.466-2.658-132.8-2.658-199 0 0.77 17.212 7.77 31.544 21 43 14.522 11.962 31.19 19.294 50 22-14.522 12.072-21.19 27.74-20 47-0.422 29.934 13.578 48.602 42 56z" />
<glyph unicode="&#xe943;" d="M607 423c72.004 0.334 144.004 0 216-1 11.78-7.56 14.78-17.894 9-31-4.388-5.362-10.054-8.362-17-9-66.666-1.334-133.334-1.334-200 0-18.912 5.504-23.912 17.17-15 35 2.29 2.272 4.624 4.272 7 6z" />
<glyph unicode="&#xe944;" d="M607 335c39.338 0.334 78.672 0 118-1 16-12.666 16-25.334 0-38-39.334-1.334-78.666-1.334-118 0-15.888 13.070-15.888 26.070 0 39z" />
<glyph unicode="&#xe945;" d="M365 245c26.684 0.944 44.35-11.056 53-36 1.334-14 1.334-28 0-42-2.478-10.482-8.144-18.816-17-25 35.726-5.396 59.726-25.062 72-59-0.058-3.058-1.392-5.392-4-7-65.81-1.658-131.476-1.324-197 1 0.77 17.212 7.77 31.544 21 43 14.522 11.962 31.19 19.294 50 22-14.562 12.144-21.23 27.81-20 47-0.41 29.972 13.59 48.638 42 56z" />
<glyph unicode="&#xe946;" d="M607 215c72.004 0.334 144.004 0 216-1 11.78-7.56 14.78-17.894 9-31-2.428-3.098-5.428-5.43-9-7-72-1.334-144-1.334-216 0-12.792 8.62-15.126 19.62-7 33 2.29 2.272 4.624 4.272 7 6z" />
<glyph unicode="&#xe947;" d="M607 127c30.674 0.334 61.34 0 92-1 11.78-7.56 14.78-17.894 9-31-2.428-3.098-5.428-5.43-9-7-30.666-1.334-61.334-1.334-92 0-15.888 13.070-15.888 26.070 0 39z" />
<glyph unicode="&#xe948;" d="M699 961c92.666 0 185.334 0 278 0 23.174-6.509 38.508-21.176 46-44 0-17.333 0-34.667 0-52-7.598-8.849-16.598-10.183-27-4-2.222 16.558-4.222 33.225-6 50-3.196 9.197-9.53 14.864-19 17-88.666 1.333-177.334 1.333-266 0-10.334-2.333-16.666-8.667-19-19-1.334-47.333-1.334-94.667 0-142 1.766-5.205 4.766-9.538 9-13 11.518-4.982 23.518-8.316 36-10 9.89-5.892 16.89-14.224 21-25 0.666-22 1.334-44 2-66 16.666 27.334 33.334 54.666 50 82 5.338 5.328 11.672 8.996 19 11 50.748 0.094 101.416 1.428 152 4 7.116 3.784 12.116 9.45 15 17 2.27 14.564 3.602 29.231 4 44 9.658 10.536 19.326 10.536 29 0 0-17.333 0-34.667 0-52-7.632-19.962-21.632-33.63-42-41-50.126-0.056-100.126-1.39-150-4-21.126-32.47-41.46-65.47-61-99-11.036-12.842-24.036-15.174-39-7-4.788 3.904-7.788 8.904-9 15-0.666 29.334-1.334 58.666-2 88-2.342 2.786-5.342 4.454-9 5-29.578 1.576-48.578 16.576-57 45-1.334 51.333-1.334 102.667 0 154 6.030 24.361 21.030 39.695 45 46z" />
<glyph unicode="&#xe949;" d="M767-63c6.8 3.074 13.466 6.74 20 11 19.082 21.138 20.75 43.472 5 67-0.666 26.666-1.334 53.334-2 80-4.628 52.568-22.628 99.902-54 142 0.332 23.324 0.332 46.656 0 70-6.35 25.018-22.018 40.684-47 47-59.334 0.666-118.666 1.334-178 2-6.030 5.726-9.698 12.726-11 21-1.334 14-1.334 28 0 42 23 15 42 34 57 57 14 0.666 28 1.334 42 2 26.206 8.212 41.872 25.878 47 53 1.334 41.334 1.334 82.666 0 124-1.632 17.936-10.298 31.268-26 40-0.12 32.772-1.454 65.44-4 98-11.896 28.865-33.564 44.199-65 46-2.356 34.688-20.356 56.354-54 65-63.334 1.333-126.666 1.333-190 0-74.238-14.903-115.905-59.903-125-135-0.335-25.36-1.335-50.692-3-76-11.494-6.954-19.161-16.954-23-30-1.333-27.334-1.333-54.666 0-82 11.63-30.994 33.963-42.994 67-36 6.324-54.010 31.992-96.010 77-126 1.334-16 1.334-32 0-48-2.122-6.124-5.788-11.124-11-15-59.334-0.666-118.667-1.334-178-2-26.95-7.514-42.617-25.182-47-53 0.3-20.722 0.967-41.39 2-62-47.11-66.434-65.776-140.434-56-222-4.748-5.526-8.415-11.526-11-18 0-9.334 0-18.666 0-28 6.847-16.848 18.847-28.182 36-34 244 0 488 0 732 0zM311 873c60.67 0.333 121.336 0 182-1 18.794-7.872 27.794-22.206 27-43 3.666-10.333 10.666-17.333 21-21 21.536 1.416 36.536-7.584 45-27 1.948-37.514 1.28-74.848-2-112-11.488-7.060-23.822-12.394-37-16-1.666 25.308-2.666 50.64-3 76-10.278 34.001-33.278 52.001-69 54-18.788-3.030-37.456-6.697-56-11-12.666-1.333-25.334-1.333-38 0-18.256 4.148-36.59 7.815-55 11-38.766-2.105-62.1-22.105-70-60-0.666-23.334-1.334-46.666-2-70-11.634 4.324-23.3 8.656-35 13-2.786 2.342-4.454 5.342-5 9-1.334 30-1.334 60 0 90 6.852 59.173 39.186 95.173 97 108zM319 751c15.626-1.406 30.96-4.406 46-9 23.334-4 46.666-4 70 0 13.292 3.21 26.626 6.21 40 9 18.514-1.552 30.848-10.884 37-28 0.108-27.47 1.44-54.804 4-82 6.724-13.536 17.724-20.202 33-20 1.060-30.18-0.608-60.18-5-90-0.616-1.616-1.616-2.95-3-4-5.442 4.054-11.442 7.054-18 9-18.666 1.334-37.334 1.334-56 0-26.582-8.806-36.916-27.14-31-55 10.952-22.982 29.286-32.65 55-29-61.796-41.74-123.128-41.072-184 2-26.874 21.554-43.874 49.22-51 83-2.776 27.91-3.776 55.91-3 84 16.050-0.288 27.050 7.044 33 22 0.142 28.11 1.476 56.11 4 84 5.88 12.906 15.548 20.906 29 24zM187 653c7.741-11.234 18.408-18.566 32-22 1.996-18.62 2.664-37.286 2-56-8.164-0.312-16.164 0.688-24 3-4.333 1.666-7.333 4.666-9 9-1 21.99-1.333 43.99-1 66zM613 653c1.332-9.978 1.998-20.312 2-31 0.202-12.49-0.798-24.822-3-37-8.49-8.386-18.824-11.718-31-10-0.664 18.714 0.004 37.38 2 56 12.554 3.934 22.554 11.268 30 22zM611 547c5.368-12.76 2.034-23.76-10-33-9.532-5.14-19.532-6.14-30-3 4.196 10.982 6.862 22.316 8 34 11.052-0.642 21.72 0.024 32 2zM473 505c14.682 0.332 29.348 0 44-1 5.406-3.64 7.072-8.64 5-15-1.5-1.252-3.168-2.252-5-3-14.666-1.334-29.334-1.334-44 0-5.758 3.332-7.424 8.332-5 15 1.99 1.132 3.656 2.466 5 4zM333 403c44.316-17.968 88.982-18.634 134-2-0.1-15.472 1.234-30.806 4-46-47.352-0.666-94.686 0-142 2 3.616 15.068 4.95 30.402 4 46zM117 323c189.334 0.334 378.668 0 568-1 15.778-7.212 22.444-19.546 20-37-4.668-84.012-9.334-168.012-14-252-77.334 0-154.666 0-232 0 1.256 9.856 4.256 19.19 9 28 16.078 17.478 28.078 37.478 36 60 11.286 53.056-5.714 94.056-51 123-17.284 5.858-28.952 0.19-35-17-1-25.324-1.334-50.658-1-76-11.186-0.614-22.186 0.054-33 2-0.666 26-1.334 52-2 78-7.658 14.558-19.326 18.892-35 13-51.622-36.1-65.954-83.766-43-143 10-14 20-28 30-42 3.41-8.236 6.41-16.57 9-25-77.998-1-155.997-1.334-234-1 0.245 16.74-0.755 33.406-3 50-5.909 7.554-13.576 9.886-23 7-3.098-2.428-5.431-5.428-7-9 0.196-15.966 0.529-31.966 1-48-12 0-24 0-36 0-3.708 51.758 5.292 101.092 27 148 2.326-13.206 3.66-26.54 4-40 5.39-11.196 13.723-14.196 25-9 2.403 1.806 4.070 4.138 5 7-0.617 50.73-2.951 101.396-7 152 1.168 15.128 8.501 25.794 22 32zM449 207c25.466-23.864 32.466-52.53 21-86-7.776-14.44-17.11-27.772-28-40-8.062-14.86-13.73-30.526-17-47-16.654-1-33.32-1.332-50-1-4.506 30.344-17.506 56.344-39 78-18.052 34.822-13.384 66.156 14 94 0.666-19.334 1.334-38.666 2-58 3.276-12.618 10.942-21.618 23-27 16.666-1.334 33.334-1.334 50 0 11.614 3.614 19.282 11.28 23 23 1 21.322 1.334 42.656 1 64zM731 183c12.46-23.040 20.792-47.708 25-74 2.584-25.262 3.584-50.596 3-76-12 0-24 0-36 0 3.184 49.968 5.85 99.968 8 150zM41 1c239.334 0.334 478.668 0 718-1 15.070-8.97 15.736-18.97 2-30-240-1.334-480-1.334-720 0-10.379 5.826-12.712 14.16-7 25 2.29 2.272 4.623 4.272 7 6z" />
<glyph unicode="&#xe94a;" d="M729 887c10.022 0.332 20.022-0.001 30-1 8.506-6.841 10.174-15.174 5-25-6.084-4.778-13.084-6.778-21-6-18.73-0.304-25.73 8.363-21 26 2.29 2.273 4.624 4.273 7 6z" />
<glyph unicode="&#xe94b;" d="M803 887c48.672 0.333 97.338 0 146-1 11.344-11.908 10.010-21.908-4-30-46.666-1.333-93.334-1.333-140 0-14.33 9.814-14.996 20.148-2 31z" />
<glyph unicode="&#xe94c;" d="M729 817c72.67 0.333 145.336 0 218-1 10.070-6.027 12.404-14.36 7-25-1.806-2.403-4.138-4.070-7-5-72.666-1.333-145.334-1.333-218 0-13.172 10.321-13.172 20.654 0 31z" />
<glyph unicode="&#xe94d;" d="M373 961c27.334 0 54.666 0 82 0 160.734-22.183 275.068-106.85 343-254 50.164-131.592 40.164-258.258-30-380-14.418-22.756-30.75-44.090-49-64 22.638-23.638 45.638-46.972 69-70 10.904 12.588 23.238 23.256 37 32 3.23-1.308 6.564-2.308 10-3 59.722-59.056 118.722-118.722 177-179 4.324-7.962 7.99-15.962 11-24 0-10 0-20 0-30-7.192-26.524-23.858-43.856-50-52-11.334 0-22.666 0-34 0-11.466 4.742-22.132 11.076-32 19-56.334 56.334-112.666 112.666-169 169-3.428 6.1-3.428 12.1 0 18 9.666 9.666 19.334 19.334 29 29-23.028 23.362-46.362 46.362-70 69-110.188-97.052-237.52-130.052-382-99-158.136 44.136-259.803 145.136-305 303-4.345 20.16-8.012 40.16-11 60 0 27.334 0 54.666 0 82 18.306 142.338 88.973 250.005 212 323 51.018 27.241 105.018 44.241 162 51zM387 933c169.684 2.703 294.684-69.963 375-218 64.772-149.896 47.438-289.23-52-418-109.094-119.38-242.76-160.38-401-123-148.047 47.726-239.713 147.392-275 299-23.409 157.852 26.924 286.186 151 385 60.552 43.405 127.886 68.405 202 75zM401 785c66.57 0.751 107.236-31.248 122-96-72.666 0-145.334 0-218 0 5.618 35.28 23.618 62.28 54 81 13.59 6.858 27.59 11.858 42 15zM265 659c44.666 0 89.334 0 134 0 0-128 0-256 0-384-65.476 9.15-111.81 43.818-139 104-4.898 12.26-8.232 24.926-10 38-1.334 75.334-1.334 150.666 0 226 2.706 7.7 7.706 13.034 15 16zM429 659c44.672 0.334 89.338 0 134-1 7.856-3.186 12.856-8.854 15-17 1.334-73.334 1.334-146.666 0-220-11.214-68.76-49.548-115.094-115-139-11.182-3.196-22.516-5.53-34-7 0 128 0 256 0 384zM313 483c18.15-0.984 23.484-9.65 16-26-9.828-8.17-18.162-6.838-25 4-3.214 10.124-0.214 17.456 9 22zM505 483c18.15-0.984 23.484-9.65 16-26-14.156-9.268-23.488-5.602-28 11 2.216 6.536 6.216 11.536 12 15zM823 187c55.832-52.828 110.832-106.828 165-162 11.962-25.17 5.628-44.17-19-57-11.986-4.56-23.32-3.226-34 4-53.666 53.666-107.334 107.334-161 161-1.334 1.334-1.334 2.666 0 4 16.738 16.404 33.072 33.070 49 50z" />
<glyph unicode="&#xe94e;" d="M317 847c5.964 0.791 11.298-0.542 16-4 7.724-14.162 16.392-27.495 26-40 36.348 13.306 72.68 13.306 109 0 2.522 0.518 4.522 1.852 6 4 6.746 12.496 13.746 24.829 21 37 17.68 5.669 25.346-0.664 23-19-6.6-12.259-13.6-24.259-21-36 21.722-18.775 38.056-41.442 49-68 3.486-10.434 5.82-21.1 7-32 33.338-1.672 52.338-19.006 57-52 12.396 13.064 25.396 25.398 39 37 17.084 0.842 22.75-6.824 17-23-18.666-18.666-37.334-37.334-56-56-1-20.656-1.332-41.322-1-62 32.006 0.334 64.006 0 96-1 16.94-14.938 33.274-30.604 49-47 4.652-12.688 0.32-20.688-13-24-2.876 0.438-5.542 1.438-8 3-13.334 13.334-26.666 26.666-40 40-27.992 1-55.992 1.334-84 1-0.334-26.008 0-52.008 1-78 27.334-27.334 54.666-54.666 82-82 5.464-17.212-0.868-24.878-19-23-23.028 23.362-46.362 46.362-70 69-36.744-105.062-110.744-152.728-222-143-79.65 17.648-131.984 65.316-157 143-23-23-46-46-69-69-19.316-3.030-25.65 4.638-19 23 27.333 27.334 54.667 54.666 82 82 1 25.992 1.334 51.992 1 78-28.008 0.334-56.008 0-84-1-13.333-13.334-26.667-26.666-40-40-19.057-4.944-26.057 2.056-21 21 15.727 16.396 32.060 32.062 49 47 31.993 1 63.993 1.334 96 1 0.332 20.678 0 41.344-1 62-19.333 19.334-38.667 38.666-58 58-2.652 15.342 3.682 22.342 19 21 13.605-11.602 26.604-23.936 39-37 4.746 33.084 23.746 50.418 57 52 4.95 40.912 23.616 73.912 56 99-8.794 14.587-16.794 29.587-24 45 1.13 6.432 4.464 11.098 10 14zM401 785c-14.41-3.142-28.41-8.142-42-15-30.382-18.72-48.382-45.72-54-81 72.666 0 145.334 0 218 0-14.764 64.752-55.43 96.751-122 96zM265 659c-7.294-2.966-12.294-8.3-15-16-1.334-75.334-1.334-150.666 0-226 1.768-13.074 5.102-25.74 10-38 27.19-60.182 73.524-94.85 139-104 0 128 0 256 0 384-44.666 0-89.334 0-134 0zM429 659c0-128 0-256 0-384 11.484 1.47 22.818 3.804 34 7 65.452 23.906 103.786 70.24 115 139 1.334 73.334 1.334 146.666 0 220-2.144 8.146-7.144 13.814-15 17-44.662 1-89.328 1.334-134 1zM313 483c-9.214-4.544-12.214-11.876-9-22 6.838-10.838 15.172-12.17 25-4 7.484 16.35 2.15 25.016-16 26zM505 483c-5.784-3.464-9.784-8.464-12-15 4.512-16.602 13.844-20.268 28-11 7.484 16.35 2.15 25.016-16 26z" />
<glyph unicode="&#xe94f;" d="M317 513c33.132-4.128 48.132-22.796 45-56-10.030-28.51-29.698-39.51-59-33-29.624 15.45-37.292 38.45-23 69 9.874 11.762 22.208 18.43 37 20zM313 483c-9.214-4.544-12.214-11.876-9-22 6.838-10.838 15.172-12.17 25-4 7.484 16.35 2.15 25.016-16 26z" />
<glyph unicode="&#xe950;" d="M509 513c37.788-6.822 51.456-28.822 41-66-8.558-15.87-21.89-24.538-40-26-34.6 5.278-49.266 25.278-44 60 7.96 19.672 22.294 30.34 43 32zM505 483c-5.784-3.464-9.784-8.464-12-15 4.512-16.602 13.844-20.268 28-11 7.484 16.35 2.15 25.016-16 26z" />
<glyph unicode="&#xe951;" d="M863 105c5.64 0.504 10.972-0.496 16-3 23-23 46-46 69-69 3.060-19.618-4.606-25.952-23-19-22.334 22.334-44.666 44.666-67 67-4.978 9.486-3.31 17.486 5 24z" />
<glyph unicode="&#xe952;" d="M83 919c252 0.333 504 0 756-1 13.828-7.539 17.494-18.539 11-33-3.086-3.757-6.752-6.757-11-9-249.334-0.667-498.666-1.333-748-2-1.667-1.667-3.333-3.333-5-5-1.333-52-1.333-104 0-156 1.303-4.446 4.303-6.78 9-7 277.334-1.334 554.666-1.334 832 0 4.696 0.22 7.696 2.554 9 7 1.334 51.333 1.334 102.667 0 154-0.93 2.862-2.598 5.195-5 7-14.666 0.667-29.334 1.333-44 2-13.828 7.539-17.494 18.539-11 33 2.334 2.333 4.666 4.667 7 7 9.782 2.228 19.782 3.228 30 3 30.032 4.155 51.7-7.179 65-34 3.27-60.57 3.938-121.237 2-182-6.080-23.412-21.080-37.078-45-41-286.070-1.984-572.070-1.318-858 2-18.723 6.72-30.39 19.72-35 39-1.333 58-1.333 116 0 174 6.032 21.697 19.699 35.697 41 42z" />
<glyph unicode="&#xe953;" d="M107 621c112.668 0.334 225.336 0 338-1 24.334-5.666 39.334-20.666 45-45 1.334-183.334 1.334-366.666 0-550-3.922-23.92-17.588-38.92-41-45-114.666-1.334-229.334-1.334-344 0-20.839 5.506-34.506 18.506-41 39-1.333 18.666-1.333 37.334 0 56 8.394 11.942 19.394 14.942 33 9 2.333-2.334 4.667-4.666 7-7 2.471-15.846 3.804-31.846 4-48 1-2.334 2.667-4 5-5 108.666-1.334 217.334-1.334 326 0 4.446 1.304 6.78 4.304 7 9 1.984 179.446 1.318 358.78-2 538-1.806 2.402-4.138 4.070-7 5-106.666 1.334-213.334 1.334-320 0-3.658-0.546-6.658-2.214-9-5-0.667-128-1.333-256-2-384-8.182-16.758-20.516-20.424-37-11-2.403 1.806-4.070 4.138-5 7-1.333 132.666-1.333 265.334 0 398 7.103 21.446 21.436 34.78 43 40z" />
<glyph unicode="&#xe954;" d="M577 621c-23.97-6.306-38.97-21.638-45-46-1.868-30.11-1.2-60.11 2-90 5.488-15.49 15.822-26.49 31-33 118.552-3.31 237.218-3.976 356-2 16.406 5.028 28.072 15.362 35 31 3.246 33.2 3.912 66.534 2 100-6.752 21.422-21.086 34.422-43 39-112.664 1-225.332 1.334-338 1zM585 577c106.668 0.334 213.336 0 320-1 3.658-0.546 6.658-2.214 9-5 1.334-24.666 1.334-49.334 0-74-1-1-2-2-3-3-110-1.334-220-1.334-330 0-2.786 2.342-4.454 5.342-5 9-1.334 20.666-1.334 41.334 0 62 1.198 5.508 4.198 9.508 9 12z" />
<glyph unicode="&#xe955;" d="M571 385c-21.042-7.384-34.042-22.050-39-44-1.868-30.11-1.2-60.11 2-90 7.552-20.218 21.886-32.552 43-37 112.666-1.334 225.334-1.334 338 0 19.594 3.59 33.26 14.59 41 33 3.246 33.2 3.912 66.534 2 100-5.028 16.406-15.362 28.072-31 35-118.55 2.976-237.216 3.976-356 3zM581 341c110.002 0.334 220.002 0 330-1 1-1 2-2 3-3 1.334-24.666 1.334-49.334 0-74-2.342-2.786-5.342-4.454-9-5-106.666-1.334-213.334-1.334-320 0-5.204 1.87-8.204 5.536-9 11-1.334 20.666-1.334 41.334 0 62 0.732 3.904 2.398 7.236 5 10z" />
<glyph unicode="&#xe956;" d="M77 151c26.198 0.16 34.531-11.84 25-36-10.070-9.464-21.070-10.464-33-3-2.403 1.806-4.070 4.138-5 7-4.552 14.748-0.218 25.414 13 32z" />
<glyph unicode="&#xe957;" d="M573 151c-18.866-5.326-31.866-17.326-39-36-4-33.334-4-66.666 0-100 6.72-18.724 19.72-30.39 39-35 114.666-1.334 229.334-1.334 344 0 20.838 5.506 34.506 18.506 41 39 1.334 30.666 1.334 61.334 0 92-5.302 17.308-16.302 29.642-33 37-117.242 2.968-234.576 3.968-352 3zM583 107c108.668 0.334 217.336 0 326-1 1.666-1.666 3.334-3.334 5-5 1.334-24 1.334-48 0-72-1.666-1.666-3.334-3.334-5-5-108.666-1.334-217.334-1.334-326 0-4.446 1.304-6.78 4.304-7 9-1.334 21.334-1.334 42.666 0 64 0.514 4.814 2.848 8.146 7 10z" />
<glyph unicode="&#xe958;" d="M175 939c-20.898-4.654-34.564-17.32-41-38-2.803-31.246-3.803-62.58-3-94-20.677 0.333-41.344 0-62-1-25.761-7.152-39.428-24.152-41-51-1.333-218.666-1.333-437.334 0-656 2.917-27.588 17.917-44.588 45-51 117.998-1 235.998-1.334 354-1-0.334-26.674 0-53.342 1-80 0.748-1.832 1.748-3.5 3-5 43.828-2.314 87.828-3.314 132-3 44.172-0.314 88.172 0.686 132 3 1.252 1.5 2.252 3.168 3 5 1 26.658 1.334 53.326 1 80 48.672-0.334 97.338 0 146 1 21.114 4.448 35.448 16.782 43 37 2.764 31.256 3.764 62.588 3 94 20.012-0.332 40.012 0 60 1 26.266 6.828 40.598 23.828 43 51 1.334 218.666 1.334 437.334 0 656-1.448 27.909-15.78 44.909-43 51-258.666 1-517.332 1.333-776 1zM179 911c256 0.333 512 0 768-1 7.55-2.884 13.216-7.884 17-15 1-40.661 1.334-81.328 1-122-164.668-0.333-329.334 0-494 1-20 22.667-41.334 44-64 64-24.56 2.252-49.226 3.252-74 3-22-0.333-44-0.667-66-1-9.778-1.112-16.778-6.112-21-15-1-17.321-1.332-34.654-1-52-28.666 0-57.333 0-86 0-0.333 37.339 0 74.673 1 112 1.396 12.38 7.729 21.047 19 26zM719 851c6.98 0.699 11.646-2.301 14-9-4.408-9.544-10.74-11.21-19-5-1.676 5.961-0.010 10.628 5 14zM807 851c13.040-0.435 16.374-6.102 10-17-15.494-1.338-18.828 4.328-10 17zM895 851c13.972 0.338 17.306-5.329 10-17-14.168-0.95-17.502 4.717-10 17zM273 813c40.672 0.333 81.338 0 122-1 20.728-20.059 40.728-40.725 60-62 2.666-1.334 5.334-2.666 8-4 167.332-1 334.666-1.334 502-1 0.334-174.002 0-348.002-1-522-3.784-7.116-9.45-12.116-17-15-85.334-1.334-170.666-1.334-256 0 21.938 5.562 30.272 19.228 25 41-44.826 82.322-90.16 164.322-136 246-11.334 10.666-22.666 10.666-34 0-45.84-81.678-91.174-163.678-136-246-5.316-21.668 3.018-35.336 25-41-85.334-1.334-170.666-1.334-256 0-11.675 4.334-18.008 12.668-19 25-1 170.666-1.333 341.332-1 512 34.189-0.942 68.19 0.058 102 3 6.508 4.684 10.176 11.018 11 19 1 15.319 1.332 30.652 1 46zM75 779c18.667 0 37.333 0 56 0-0.333-183.334 0-366.668 1-550 2.272-26.938 16.605-43.27 43-49 97.334-0.666 194.666-1.334 292-2 4.84-9.008 6.84-18.674 6-29-17.014 2.844-31.346-1.822-43-14-2.846-19.84-3.846-39.84-3-60-116.668-0.334-233.335 0-350 1-7.96 1.628-13.96 5.962-18 13-2.329 224.586-2.662 449.254-1 674 3.546 7.881 9.213 13.214 17 16zM535 623c18.666 0 37.334 0 56 0 0-18.666 0-37.334 0-56-18.666 0-37.334 0-56 0 0 18.666 0 37.334 0 56zM267 619c23.598 2.070 33.932-8.596 31-32-8.602-15.754-20.934-19.42-37-11-14.382 16.7-12.382 31.032 6 43zM841 619c26.71 1.864 37.042-10.136 31-36-16.378-16.824-31.044-15.49-44 4-3.876 14.222 0.458 24.888 13 32zM547 439c2.646-19.682 2.646-39.682 0-60-26.588-16.348-32.256-38.348-17-66 12.42-12.802 27.42-17.136 45-13 24.696 10.396 33.696 28.728 27 55-3.934 11.602-11.602 19.602-23 24-2.332 19.966-2.664 39.966-1 60 37.402-66.412 74.402-133.078 111-200-29.882-10.214-50.216-30.214-61-60-2.5-9.84-3.5-19.84-3-30-41.334 0-82.666 0-124 0-0.346 45.006-21.68 75.34-64 91 37.18 66.148 73.848 132.48 110 199zM293 379c18.666 0 37.334 0 56 0 0-18.666 0-37.334 0-56-18.666 0-37.334 0-56 0 0 18.666 0 37.334 0 56zM777 379c18.666 0 37.334 0 56 0 0.844-18.658 1.51-37.326 2-56-18.666 0-37.334 0-56 0-0.666 18.666-1.334 37.334-2 56zM557 353c12.282 1.368 18.616-3.966 19-16-5.688-10.732-13.688-12.732-24-6-4.346 8.642-2.68 15.974 5 22zM659 179c68 0 136 0 204 0 0.334-26.008 0-52.008-1-78-1.186-13.188-8.186-21.522-21-25-47.328-1-94.662-1.334-142-1 0.846 20.16-0.154 40.16-3 60-11.5 12.746-25.834 17.414-43 14-0.76 10.638 1.24 20.638 6 30zM455 121c72 0 144 0 216 0 0-44.666 0-89.334 0-134-72 0-144 0-216 0 0 44.666 0 89.334 0 134z" />
<glyph unicode="&#xe959;" d="M711 879c28.444 3.189 45.112-9.145 50-37-4.15-29.095-20.818-41.095-50-36-26.71 12.804-33.044 32.471-19 59 5.65 5.952 11.984 10.619 19 14zM719 851c-5.010-3.372-6.676-8.039-5-14 8.26-6.21 14.592-4.544 19 5-2.354 6.699-7.020 9.699-14 9z" />
<glyph unicode="&#xe95a;" d="M799 879c37.882 2.46 53.548-14.873 47-52-9.878-19.314-25.544-26.314-47-21-23.498 11.808-30.498 30.141-21 55 5.68 7.654 12.68 13.654 21 18zM807 851c-8.828-12.672-5.494-18.338 10-17 6.374 10.898 3.040 16.565-10 17z" />
<glyph unicode="&#xe95b;" d="M889 879c21.914 3.878 37.58-4.122 47-24 5-37.667-11.334-54-49-49-23.87 12.943-30.204 31.943-19 57 5.71 7.421 12.71 12.755 21 16zM895 851c-7.502-12.283-4.168-17.95 10-17 7.306 11.671 3.972 17.338-10 17z" />
<glyph unicode="&#xe95c;" d="M525 651c25.342 0.334 50.676 0 76-1 6.874-2.21 11.874-6.544 15-13 2.678-10.472 3.678-21.14 3-32 60.014-0.666 120.014 0 180 2 12.574 33.956 36.574 46.29 72 37 28.566-14.822 38.232-37.822 29-69-11.864-24.77-31.532-35.102-59-31-17.742 4.072-30.408 14.406-38 31-39.984 2.332-79.984 2.666-120 1 68.656-36.93 112.656-93.264 132-169 9.358 0.332 18.69-0.002 28-1 10.694-4.030 17.028-11.698 19-23 1.334-21.334 1.334-42.666 0-64-1.112-9.778-6.112-16.778-15-21-13.514-2.218-27.182-3.218-41-3-11.666 0.334-23.334 0.666-35 1-9.47 2.136-15.804 7.802-19 17-1.334 25.334-1.334 50.666 0 76 6.404 14.042 17.404 20.042 33 18-20.69 71.708-65.356 122.708-134 153-10.238 4.078-20.57 7.744-31 11 0.626-13.546-5.042-23.212-17-29-26.666-1.334-53.334-1.334-80 0-10.706 5.738-16.040 14.738-16 27-84.020-23.35-139.354-76.684-166-160 8.996-1.204 17.664-3.538 26-7 4.234-3.462 7.234-7.796 9-13 1.334-24.666 1.334-49.334 0-74-2.334-10.334-8.666-16.666-19-19-23.334-1.334-46.666-1.334-70 0-11 3-18 10-21 21-1.334 22.666-1.334 45.334 0 68 1.544 11.47 7.876 18.47 19 21 8.742 0.344 17.408 1.344 26 3 20.634 74.284 64.634 129.95 132 167-39.334 1.334-78.666 1.334-118 0-14.34-28.136-37.008-38.136-68-30-31.014 15.714-40.682 40.048-29 73 13.708 23.344 34.042 32.344 61 27 19.738-6.072 32.404-19.072 38-39 59.986-2 119.986-2.666 180-2-0.678 10.86 0.322 21.528 3 32 3.484 6.492 8.484 11.158 15 14zM535 623c0-18.666 0-37.334 0-56 18.666 0 37.334 0 56 0 0 18.666 0 37.334 0 56-18.666 0-37.334 0-56 0zM267 619c-18.382-11.968-20.382-26.3-6-43 16.066-8.42 28.398-4.754 37 11 2.932 23.404-7.402 34.070-31 32zM841 619c-12.542-7.112-16.876-17.778-13-32 12.956-19.49 27.622-20.824 44-4 6.042 25.864-4.29 37.864-31 36zM293 379c0-18.666 0-37.334 0-56 18.666 0 37.334 0 56 0 0 18.666 0 37.334 0 56-18.666 0-37.334 0-56 0zM777 379c0.666-18.666 1.334-37.334 2-56 18.666 0 37.334 0 56 0-0.49 18.674-1.156 37.342-2 56-18.666 0-37.334 0-56 0zM557 353c-7.68-6.026-9.346-13.358-5-22 10.312-6.732 18.312-4.732 24 6-0.384 12.034-6.718 17.368-19 16z" />
<glyph unicode="&#xe95d;" d="M615 945c-7.378-5.057-13.044-11.724-17-20-4.43-28.012-8.764-56.012-13-84-4.354-0.172-8.354-1.506-12-4-21.614 15.28-42.948 30.947-64 47-8.86 4.54-18.194 5.874-28 4-28.21-24.206-55.21-49.873-81-77-4.68-8.111-6.014-16.777-4-26 16.61-24.942 33.61-49.608 51-74-2.494-3.646-3.828-7.646-4-12-28.054-3.866-56.054-8.198-84-13-9-3.666-15.334-10-19-19-1.334-37.334-1.334-74.666 0-112 3.854-9.856 10.854-16.188 21-19 25.964-4.216 51.964-8.216 78-12 3.768-3.9 6.436-8.568 8-14-16.078-22.476-32.412-44.81-49-67-2.868-7.812-3.534-15.812-2-24 24.206-28.21 49.872-55.21 77-81 7.524-4.312 15.524-5.646 24-4 25.612 14.268 49.612 30.936 72 50 5.348-0.306 10.68-1.306 16-3 4.050-27.354 8.384-54.688 13-82 2.812-10.146 9.144-17.146 19-21 37.334-1.334 74.666-1.334 112 0 9 3.666 15.334 10 19 19 4.216 25.964 8.216 51.964 12 78 3.894 6.446 9.56 9.446 17 9 21.44-16.774 43.44-32.774 66-48 10.304-4.244 20.304-3.578 30 2 24.334 24.334 48.666 48.666 73 73 5.81 10.302 6.476 20.97 2 32-16.824 22.314-33.156 44.98-49 68 1.666 3.334 3.334 6.666 5 10 27.348 6.17 55.014 11.17 83 15 8.224 3.558 14.556 9.224 19 17 1.95 40.18 1.284 80.18-2 120-3.666 3.666-7.334 7.334-11 11-29.24 5.762-58.572 11.096-88 16-2.384 3.824-4.384 7.824-6 12 16.088 22.51 32.422 44.844 49 67 5.27 13.94 3.27 26.607-6 38-21 21-42 42-63 63-11.468 9.276-24.136 11.276-38 6-22.156-16.578-44.49-32.911-67-49-4.176 1.616-8.176 3.616-12 6-4.882 27.29-9.548 54.623-14 82-2.742 6.76-7.076 12.427-13 17-39.816 2.952-79.816 3.952-120 3zM631 913c28.654-1.128 57.32-1.794 86-2 3.708-31.584 8.708-62.918 15-94 15.548-5.3 30.548-11.966 45-20 24.042 16.022 47.376 33.022 70 51 3.11 2.579 6.442 3.912 10 4 19.696-19.362 39.028-39.028 58-59-18.666-26-37.334-52-56-78 7.984-13.968 14.318-28.634 19-44 31.232-7.15 62.9-12.484 95-16 0.334-28.674 0-57.342-1-86-30.154-5.548-60.488-10.548-91-15-6.732-15.818-14.064-31.484-22-47 16.022-24.042 33.022-47.376 51-70 2.578-3.11 3.912-6.442 4-10-19.362-19.696-39.028-39.028-59-58-25.524 18.922-51.19 37.588-77 56-14.424-7.712-29.424-14.046-45-19-1-1-2-2-3-3-4.988-30.594-9.322-61.26-13-92-28.674-0.334-57.342 0-86 1-5.362 30.85-10.362 61.85-15 93-16.29 5.878-32.29 12.544-48 20-23.5-16.258-46.5-33.258-69-51-3.11-2.578-6.442-3.912-10-4-19.696 19.362-39.028 39.028-58 59 17.358 25.38 35.692 50.046 55 74 1.334 2 1.334 4 0 6-7.178 14.684-13.512 29.684-19 45-31.15 4.638-62.15 9.638-93 15-1 28.658-1.334 57.326-1 86 30.74 3.678 61.406 8.012 92 13 7.484 15.382 14.818 31.048 22 47-17.844 25.688-36.176 51.020-55 76-1.334 1.333-1.334 2.667 0 4 19.362 19.695 39.028 39.029 59 58 26-18.667 52-37.333 78-56 15.516 7.935 31.182 15.268 47 22 4.726 31.42 9.726 62.754 15 94zM663 759c77.536-1.558 128.536-38.892 153-112 12.962-69.726-10.038-124.058-69-163-70.51-34.562-132.844-23.562-187 33-31.842 40.536-41.174 85.87-28 136 22.182 62.216 65.848 97.548 131 106z" />
<glyph unicode="&#xe95e;" d="M663 793c97.266-1.758 159.6-49.092 187-142 14.562-86.514-15.104-152.848-89-199-80.604-37.396-153.604-26.396-219 33-52.028 60.182-63.362 127.516-34 202 32.49 63.408 84.156 98.742 155 106zM663 759c-65.152-8.452-108.818-43.784-131-106-13.174-50.13-3.842-95.464 28-136 54.156-56.562 116.49-67.562 187-33 58.962 38.942 81.962 93.274 69 163-24.464 73.108-75.464 110.442-153 112z" />
<glyph unicode="&#xe95f;" d="M669 693c7.852 0.906 14.184-1.76 19-8 2.772-18.532 3.772-37.2 3-56 18.8 0.772 37.468-0.228 56-3 10.88-10.884 10.214-20.884-2-30-17.988-1-35.988-1.332-54-1 0.332-16.68 0-33.346-1-50-5.052-15.466-14.72-19.132-29-11-1.252 1.5-2.252 3.168-3 5-1 18.654-1.332 37.322-1 56-18.678-0.332-37.346 0-56 1-12.438 9.124-13.104 19.124-2 30 19.2 2.782 38.534 3.782 58 3-0.332 18.012 0 36.012 1 54 2.214 5.226 5.88 8.56 11 10z" />
<glyph unicode="&#xe960;" d="M25 421c-3.206-2.192-6.206-4.86-9-8-1.333-128.666-1.333-257.334 0-386 2.678-5.188 7.011-8.188 13-9 46-1.334 92-1.334 138 0 5.989 0.812 10.322 3.812 13 9 0.999 14.652 1.333 29.318 1 44 27.998 0.668 54.664-4.998 80-17 57.334-30 114.666-60 172-90 23.048-10.092 47.048-13.424 72-10 149.334 40 298.666 80 448 120 41.704 17.056 59.372 48.056 53 93-14.646 46.188-46.312 66.522-95 61-99.39-20.878-198.724-41.878-298-63 7.526 31.744-0.474 58.744-24 81-61.672 36.504-123.672 72.504-186 108-11.702 8.856-23.034 18.188-34 28-28.332 17.17-58.998 23.17-92 18-32.79-4.532-64.79-12.198-96-23 0.332 11.352-0.001 22.686-1 34-1.87 5.204-5.537 8.204-11 9-47.995 1-95.995 1.334-144 1zM47 387c33.333 0 66.667 0 100 0 0-112 0-224 0-336-33.333 0-66.667 0-100 0 0 112 0 224 0 336zM279 367c23.106 2.502 45.106-1.164 66-11 14.096-12.098 28.762-23.432 44-34 60.498-34.748 120.83-69.748 181-105 17.578-25.376 13.912-47.042-11-65-14.594-4.794-28.594-3.462-42 4-47.006 27.838-94.34 55.172-142 82-17.334 3.326-25-3.674-23-21 1.57-3.572 3.902-6.572 7-9 52.406-30.534 105.072-60.534 158-90 19.808-4.888 39.14-3.554 58 4 116.864 25.106 233.864 49.44 351 73 34.838-3.616 50.172-22.95 46-58-5-15.666-15.334-26-31-31-151.282-40.654-302.616-80.986-454-121-22.428 3.588-43.762 10.588-64 21-33.334 18.666-66.666 37.334-100 56-32.058 18.364-66.058 31.698-102 40-13.24 2.274-26.573 3.274-40 3 0 78.666 0 157.334 0 236 32.336 10.794 65.002 19.46 98 26z" />
<glyph unicode="&#xe961;" d="M91 355c38.359-3.398 50.026-22.732 35-58-19.913-18.962-39.246-18.294-58 2-11.519 26.926-3.852 45.594 23 56z" />
<glyph unicode="&#xe962;" d="M495 961c-14.686-4.883-27.020-13.549-37-26-21.138-41.818-11.47-74.151 29-97 30.982-9.511 56.648-1.845 77 23 21.848 46.262 9.514 79.596-37 100-10.666 0-21.334 0-32 0zM501 929c27.636 2.023 41.302-10.644 41-38-8.858-22.501-24.526-29.501-47-21-22.67 22.296-20.67 41.963 6 59z" />
<glyph unicode="&#xe963;" d="M405 857c19.66 3.342 27.326-4.658 23-24-66.18-40.262-133.18-79.262-201-117-16.416-0.904-22.75 6.762-19 23 2.334 2.334 4.666 4.666 7 7 64.116 36.044 127.45 73.044 190 111z" />
<glyph unicode="&#xe964;" d="M601 857c5.374 0.328 10.708-0.005 16-1 63.006-37.172 126.34-73.838 190-110 7.554-5.91 9.886-13.576 7-23-4.824-6.584-11.158-8.918-19-7-67.82 37.738-134.82 76.738-201 117-2.814 9.888-0.482 17.888 7 24z" />
<glyph unicode="&#xe965;" d="M111 737c-24.635-6.97-40.302-22.97-47-48-5.956-42.47 11.711-68.804 53-79 43.761-0.914 68.428 20.42 74 64-6.545 46.296-33.211 67.296-80 63zM117 705c23.998 2.344 37.998-8.322 42-32-7.501-29.42-24.834-37.754-52-25-12.197 11.486-15.197 25.154-9 41 5.47 6.538 11.803 11.872 19 16z" />
<glyph unicode="&#xe966;" d="M497 737c-72.478-41.584-145.144-83.252-218-125-12.222-6.898-19.888-17.23-23-31-1.334-88-1.334-176 0-264 3.112-13.77 10.778-24.102 23-31 69.334-40 138.666-80 208-120 16-6.666 32-6.666 48 0 69.334 40 138.666 80 208 120 12.222 6.898 19.888 17.23 23 31 1.334 88 1.334 176 0 264-2.892 10.79-8.558 19.79-17 27-72.666 42-145.334 84-218 126-11.144 2.702-22.476 3.702-34 3zM505 705c8.822 0.594 16.822-1.738 24-7 22.17-13.252 44.502-26.252 67-39 0.178-3.226-1.49-5.56-5-7-66.994-37.828-133.66-76.162-200-115-29.592 16.6-58.926 33.6-88 51 67.46 39.054 134.792 78.054 202 117zM631 639c30.286-18.148 60.952-35.816 92-53 5-2.334 8.666-6 11-11 1.334-84 1.334-168 0-252-2.334-5-6-8.666-11-11-65.49-36.91-130.49-74.576-195-113-1.666 80.674-1.334 161.342 1 242 54 31 108 62 162 93 11.314 7.916 12.646 17.25 4 28-5.060 2.844-10.394 3.51-16 2-55.79-32.144-111.79-63.81-168-95-29.242 15.288-57.91 31.622-86 49 68.792 40.386 137.46 80.72 206 121zM287 559c29.108-16.39 58.108-33.056 87-50 0.666-26.666 1.334-53.334 2-80 3.96-10.812 11.628-14.478 23-11 3 1.666 5.334 4 7 7 0.336 21.364 1.336 42.698 3 64 28-16 56-32 84-48 2.334-80.658 2.666-161.326 1-242-68 40-136 80-204 120-2.976 79.828-3.976 159.828-3 240z" />
<glyph unicode="&#xe967;" d="M881 737c-27.91-8.26-44.244-26.926-49-56-1.238-38.768 17.094-62.434 55-71 35.412-2.124 59.080 13.542 71 47 4.602 55.732-21.064 82.398-77 80zM887 705c29.342 0.996 42.342-13.004 39-42-10.568-19.966-26.236-25.632-47-17-17.664 14.28-19.996 30.612-7 49 4.852 3.904 9.852 7.238 15 10z" />
<glyph unicode="&#xe968;" d="M115 577c11.385 2.48 19.051-1.52 23-12 1.333-77.334 1.333-154.666 0-232-1.97-8.332-7.303-12.332-16-12-6.548-0.398-11.214 2.268-14 8-1.333 80-1.333 160 0 240 1.379 3.7 3.713 6.368 7 8z" />
<glyph unicode="&#xe969;" d="M893 577c4.714 0.326 9.38-0.006 14-1 3.666-1 6-3.334 7-7 1.334-80 1.334-160 0-240-2.786-5.732-7.452-8.398-14-8-8.696-0.332-14.030 3.668-16 12-1.334 77.334-1.334 154.666 0 232 1.198 5.508 4.198 9.508 9 12z" />
<glyph unicode="&#xe96a;" d="M117 289c-26.67-5.652-44.336-21.652-53-48-4.648-56.018 21.018-82.35 77-79 38.586 13.486 54.252 40.486 47 81-12.274 32.652-35.941 47.984-71 46zM121 257c21.105-0.426 33.772-11.092 38-32-6.202-28.556-22.869-37.556-50-27-14.825 12.422-17.825 27.422-9 45 5.996 6.476 12.996 11.142 21 14z" />
<glyph unicode="&#xe96b;" d="M887 289c-25.874-5.52-43.542-20.854-53-46-7.252-40.514 8.414-67.514 47-81 38.51-4.928 64.178 10.738 77 47 4.236 51.43-19.43 78.096-71 80zM889 257c31.412-1.732 43.078-17.732 35-48-15.428-18.826-32.762-20.826-52-6-13.852 24.11-8.186 42.11 17 54z" />
<glyph unicode="&#xe96c;" d="M217 183c9.384-0.682 18.052-3.682 26-9 60-34.666 120-69.334 180-104 6.804-7.438 7.804-15.772 3-25-10.788-5.61-21.122-4.61-31 3-60 34.666-120 69.334-180 104-11.122 11.294-10.456 21.628 2 31z" />
<glyph unicode="&#xe96d;" d="M795 183c16.392-0.058 22.726-8.058 19-24-65.182-40.764-131.516-79.764-199-117-18.58-3.244-25.58 4.422-21 23 66.632 40.142 133.632 79.476 201 118z" />
<glyph unicode="&#xe96e;" d="M527-63c14.686 4.882 27.020 13.55 37 26 21.138 41.818 11.47 74.152-29 97-30.982 9.512-56.648 1.844-77-23-21.848-46.262-9.514-79.596 37-100 10.666 0 21.334 0 32 0zM507 33c30.638-4.274 40.97-20.94 31-50-18-18.666-36-18.666-54 0-9.624 24.746-1.958 41.414 23 50z" />
<glyph unicode="&#xe96f;" d="M191 945c-51.69-16.8-72.023-52.134-61-106 16.306-40.247 30.639-81.248 43-123-96.286-126.054-118.953-264.388-68-415-11.395-17.066-22.395-34.4-33-52-17.135-30.264-29.802-62.264-38-96-8.802-39.89-2.802-77.224 18-112 54.311-72.946 126.644-101.28 217-85 62.534 13.606 119.202 39.606 170 78 122.328-12.764 230.996 19.236 326 96 124.654 114.316 169.32 254.648 134 421 35.55 50.432 63.218 105.098 83 164 14.628 42.398 13.962 84.398-2 126-18.226 41.573-49.226 67.906-93 79-38.834 3.528-76.168-2.472-112-18-44.446-18.89-87.778-39.89-130-63-29.884 10.804-60.55 18.471-92 23-102.198 13.195-196.53-7.805-283-63 4.47 16.074 9.802 32.074 16 48 1.334 12 1.334 24 0 36-14.774 45.92-46.44 66.587-95 62zM195 911c34.224 3.085 53.558-12.249 58-46 0.204-8.387-1.462-16.387-5-24-14.806-37.759-28.806-75.759-42-114-11.070 32.542-21.736 65.209-32 98-6.968 12.236-11.301 25.236-13 39 0.954 23.273 12.287 38.939 34 47zM845 887c44.866 5.068 77.866-12.265 99-52 15.964-36.663 17.298-73.997 4-112-15.348-45.358-36.014-88.026-62-128-22.836-35.676-46.17-71.010-70-106-16.94-18.612-33.606-18.612-50 0-3.862 6.228-5.196 12.894-4 20 25.308 39.934 50.642 79.934 76 120 18.396 31.162 33.728 63.83 46 98 20.996 82.338-10.004 114.004-93 95-23.112-5.593-45.78-12.593-68-21-12.242 5.789-24.242 12.122-36 19 49.608 30.154 102.276 52.487 158 67zM459 831c2.746 0.313 5.414-0.020 8-1-21.666-21.667-43.334-43.333-65-65-8.108-10.884-14.108-22.884-18-36-0.244-26.082-1.578-52.082-4-78-1.45-4.898-3.45-9.566-6-14-16.764-20.096-32.764-40.762-48-62-2.572-5.81-4.572-11.81-6-18-1.336-25.052-5.002-49.718-11-74 2.666 0 5.334 0 8 0-3.144-28.884 3.856-54.884 21-78 10.068-9.398 19.4-19.398 28-30 11.17-38.314-2.83-61.648-42-70-7.982 1.328-15.648 3.662-23 7-13.674 8.506-27.674 16.506-42 24-12.932 7.588-21.264 18.588-25 33-3.902 21.514-8.57 42.846-14 64-22.742 43.696-57.742 58.364-105 44 4.67 74.71 29.67 142.044 75 202 0.966-1.896 1.299-3.896 1-6 10.666 0 21.334 0 32 0-2.13 11.874 1.538 21.206 11 28 6.518 13.554 11.852 27.554 16 42 60.996 49.781 130.662 79.114 209 88zM517 831c96.178-6.362 178.512-43.029 247-110-5.65-20.68-13.65-40.68-24-60-5.826-5.746-12.826-8.412-21-8 0.754 39.568-17.246 66.568-54 81-53.012 11.542-88.012-8.124-105-59-2.384-17.79-0.718-35.122 5-52-26.61-2.464-47.61-14.464-63-36-2.394-5.178-4.394-10.512-6-16-1.334-40-1.334-80 0-120 2.946-8.558 6.946-16.558 12-24 10.334-10.334 20.666-20.666 31-31-19.544-3.302-38.544-8.302-57-15-1.862-3.918-3.528-7.918-5-12 1.472-4.082 3.138-8.082 5-12 17-15.666 34-31.334 51-47-74.232-70.458-156.9-129.126-248-176-2.666-1.334-5.334-1.334-8 0-103.902 74.786-158.235 176.452-163 305 24.877 15.38 47.544 12.714 68-8 3.421-4.912 6.088-10.246 8-16 3.744-19.388 7.744-38.722 12-58 6.31-20.986 18.644-37.318 37-49 21.186-12.926 43.186-24.26 66-34 35.942-6.502 64.942 4.498 87 33 17.334 30.666 17.334 61.334 0 92-9.934 11.938-20.602 23.27-32 34-2.55 4.434-4.55 9.102-6 14-3.966 34.674-3.966 69.342 0 104 1.45 4.898 3.45 9.566 6 14 14 17.334 28 34.666 42 52 9.3 13.848 13.966 29.182 14 46 0.666 20 1.334 40 2 60 1.45 4.898 3.45 9.566 6 14 31.404 31.070 62.404 62.403 93 94zM815 793c32.908 7.414 46.576-5.252 41-38-4.904-21.128-12.57-41.128-23-60-22.6 30.132-48.6 57.132-78 81 19.952 6.774 39.952 12.441 60 17zM627 703c34.224 3.084 53.558-12.248 58-46 0.204-8.386-1.462-16.386-5-24-14.806-37.758-28.806-75.758-42-114-11.070 32.542-21.736 65.208-32 98-6.968 12.236-11.302 25.236-13 39 0.954 23.272 12.288 38.94 34 47zM791 691c8.658-10.016 16.658-20.682 24-32-25.028-43.342-52.028-85.342-81-126-15.506-44.65-1.172-74.982 43-91 20.804-3.466 39.472 1.202 56 14 13.738 17.806 26.738 36.14 39 55 15.182-92.922-1.484-179.588-50-260-18.298 21.568-37.298 42.568-57 63-10.186 7.286-21.52 11.618-34 13 0.978 26.012 2.312 52.012 4 78 4.666 23.67-4.668 32.67-28 27-42.536-9.974-85.204-18.64-128-26-17.804 16.464-34.138 34.132-49 53-1.872 7.228-2.872 14.56-3 22 3.334 0 6.666 0 10 0 0 10.666 0 21.334 0 32-3.334 0-6.666 0-10 0-0.332 14.016 0 28.016 1 42 0.692 13.076 7.026 22.076 19 27 9.602 2.588 19.268 4.92 29 7 1.89-0.81 3.224-2.144 4-4 9.884-30.99 20.552-61.656 32-92 13.89-13.138 29.556-15.472 47-7 6.062 5.118 10.396 11.452 13 19 10.944 36.5 23.278 72.5 37 108 15.502 4.114 30.836 9.114 46 15 5 5 10 10 15 15 7.58 15.818 14.58 31.818 21 48zM693 395c2.666 0 5.334 0 8 0-4.288-59.98-8.622-119.98-13-180-16.334 15-32.666 30-49 45-6.404 2.966-13.072 3.634-20 2-59.334-75.334-126.666-142.666-202-202-42.804-31.732-90.138-54.4-142-68-71.55-17.87-132.55-0.204-183 53-27.636 34.006-34.969 72.006-22 114 12.061 37.456 29.394 72.122 52 104 5.703-11.406 11.37-22.74 17-34-10.787-27.15-18.454-55.15-23-84-4.197-49.146 18.47-74.478 68-76 41.918 3.972 81.586 15.64 119 35 100.258 52.948 190.592 119.282 271 199 1.334 5.334 1.334 10.666 0 16-13.062 13.73-26.728 26.73-41 39 0.666 0.666 1.334 1.334 2 2 53.066 11.074 105.732 22.74 158 35zM727 293c4.848-1.060 9.514-2.728 14-5 21.112-21.44 41.112-43.772 60-67-76.544-99.778-178.21-151.778-305-156-4.27 1.254-8.604 2.254-13 3 53.878 46.54 102.878 97.54 147 153 20.334-19 40.666-38 61-57 8-4 16-4 24 0 2.434 3.296 4.1 6.962 5 11 2.91 39.308 5.242 78.64 7 118zM163 195c12.86-15.206 26.193-30.206 40-45 12.746-12.084 26.080-23.416 40-34-18.73-7.012-38.064-11.346-58-13-21.834-1.156-33.834 8.844-36 30 2.615 21.168 7.282 41.834 14 62z" />
<glyph unicode="&#xe970;" d="M191 881c10.666 0 21.334 0 32 0 0-11.333 0-22.667 0-34-10.666 0-21.334 0-32 0 0 11.333 0 22.667 0 34z" />
<glyph unicode="&#xe971;" d="M623 673c10.666 0 21.334 0 32 0 0-11.334 0-22.666 0-34-10.666 0-21.334 0-32 0 0 11.334 0 22.666 0 34z" />
<glyph unicode="&#xe972;" d="M191 641c10.666 0 21.334 0 32 0 2.184-10.016 2.184-20.016 0-30-9.334-2-18.666-4-28-6-1.172 0.418-2.172 1.086-3 2-0.999 11.314-1.332 22.648-1 34z" />
<glyph unicode="&#xe973;" d="M227 585c2.956 0.524 5.622-0.142 8-2 3.632-7.278 7.632-14.278 12-21-7.062-8.386-15.396-15.386-25-21-8.020 8.322-14.354 17.988-19 29 0.29 1.544 0.956 2.878 2 4 7.804 3.13 15.138 6.796 22 11z" />
<glyph unicode="&#xe974;" d="M265 541c8.89-4.788 17.556-10.12 26-16-3.81-10.96-9.142-20.96-16-30-11.032 5.178-21.032 11.844-30 20 6.714 8.704 13.382 17.37 20 26z" />
<glyph unicode="&#xe975;" d="M375 513c11.334 0 22.666 0 34 0 0-10.666 0-21.334 0-32-11.334 0-22.666 0-34 0 0 10.666 0 21.334 0 32z" />
<glyph unicode="&#xe976;" d="M439 513c11.334 0 22.666 0 34 0 0-10.666 0-21.334 0-32-11.334 0-22.666 0-34 0 0 10.666 0 21.334 0 32z" />
<glyph unicode="&#xe977;" d="M567 513c11.334 0 22.666 0 34 0 0-10.666 0-21.334 0-32-11.334 0-22.666 0-34 0 0 10.666 0 21.334 0 32z" />
<glyph unicode="&#xe978;" d="M501 939c-47.93-48.931-96.264-97.597-145-146-2.628-48.492-3.962-97.158-4-146-4.078-4.748-8.744-8.748-14-12-2.288 9.888-4.288 19.888-6 30-1.83 1.656-3.162 3.656-4 6-17.55 8.614-35.884 10.28-55 5-3.572-1.57-6.572-3.902-9-7-4.008-11.008-7.008-22.34-9-34-6.95 4.616-13.616 9.616-20 15-8 4-16 4-24 0-8.934-6.93-17.267-14.596-25-23-4.748-8.788-6.081-18.12-4-28 4.468-7.916 10.135-14.916 17-21-12.235-2.056-24.235-5.388-36-10-3.204-3.87-5.538-8.202-7-13-1.333-12.666-1.333-25.334 0-38 1.336-7.998 5.669-13.664 13-17 10.245-1.608 20.245-3.608 30-6-6.438-7.104-12.105-14.77-17-23-1.333-6-1.333-12 0-18 6.909-11.578 15.909-21.244 27-29 6.762-4.49 14.096-5.824 22-4 8.352 5.176 16.352 10.842 24 17 1.172-0.418 2.172-1.086 3-2-2.408-28.586 10.592-42.586 39-42 7.31 1.164 14.644 2.164 22 3 4.174 1.584 7.842 3.918 11 7 4.008 11.008 7.008 22.34 9 34 5.188-2.184 9.522-5.518 13-10 1.666-35.352 1.332-70.686-1-106-70.97 24.786-135.302 13.452-193-34-1.74 1.216-2.74 2.882-3 5 3.648 14.59 6.981 29.258 10 44-0.25 3.254-1.25 6.254-3 9-20.333 20.334-40.667 40.666-61 61-8.324 5.144-14.657 3.476-19-5-3.288-14.78-6.955-29.446-11-44-15.282-3.79-30.616-7.458-46-11-3.956-4.994-4.956-10.662-3-17 22.173-23.514 45.507-45.514 70-66 14.525 3.63 29.192 6.962 44 10 1.667-0.666 3.333-1.334 5-2-7-10-14-20-21-30-34.961-67.81-32.961-134.476 6-200 46.001-62.154 107.668-89.154 185-81 72.892 14.414 122.892 56.082 150 125 165.33 1.666 330.662 2.666 496 3 21.114 4.448 35.448 16.782 43 37 1.334 258.666 1.334 517.334 0 776-5.666 19-18 31.333-37 37-153.998 1-307.998 1.333-462 1zM519 919c143.334 0.333 286.668 0 430-1 18.334-2.333 28.666-12.667 31-31 1.982-252.070 1.316-504.070-2-756-4.464-10.462-12.13-17.462-23-21-162.67-1.666-325.338-1.334-488 1 12.774 85.756-17.226 151.756-90 198-2 37.31-2.666 74.642-2 112 16.228 5.876 28.562 16.542 37 32 1.334 6.666 1.334 13.334 0 20-4.896 8.23-10.562 15.896-17 23 40.066 0.138 54.4 19.804 43 59-1.212 6.096-4.212 11.096-9 15-11.128 3.578-22.462 6.244-34 8 9.692 8.73 15.692 19.396 18 32 0.342 6.258-1.324 11.926-5 17-8.87 10.548-19.204 19.214-31 26-2 40.644-2.666 81.312-2 122 34.674-0.333 69.34 0 104 1 20.548 6.546 33.548 20.213 39 41 1 33.993 1.334 67.993 1 102zM495 901c2.32-26.321 2.654-52.987 1-80-3.486-10.821-10.486-18.487-21-23-27.334-1.333-54.666-1.333-82 0 34.404 34.070 68.404 68.403 102 103zM711 841c44.352 1.951 76.684-16.715 97-56 16.472-54.61-0.528-94.944-51-121-51.724-15.628-90.724 0.038-117 47-17.756 48.67-5.422 87.671 37 117 11.040 5.78 22.372 10.113 34 13zM285 657c8.028 0.332 16.028-0.002 24-1 1-1 2-2 3-3 0.842-8.744 2.176-17.41 4-26 6.646-12.816 16.978-17.15 31-13 7.82 3.814 14.488 9.146 20 16 2 1.334 4 1.334 6 0 6.766-6.094 12.766-12.76 18-20-4.972-6.312-9.972-12.644-15-19-6.328-15.010-2.66-26.678 11-35 9.758-1.672 19.424-3.338 29-5 1.334-9.334 1.334-18.666 0-28-11.898-2.112-23.566-5.112-35-9-8.048-9.284-9.714-19.618-5-31 5.028-6.356 10.028-12.688 15-19-4.334-9.666-11.334-16.666-21-21-36.038 29.226-55.038 20.56-57-26-10.096-2.988-20.096-2.654-30 1-0.84 12.168-3.84 23.836-9 35-8.736 5.84-18.402 7.506-29 5-7-5.666-14-11.334-21-17-8.714 5.714-15.714 13.046-21 22 30.112 35.11 22.112 54.442-24 58-1.988 9.912-2.655 19.912-2 30 10.772 1.010 21.438 2.678 32 5 9.542 6.628 13.208 15.628 11 27-4.844 9.512-10.512 18.512-17 27 5.682 9.042 13.016 15.708 22 20 6.666-5.334 13.334-10.666 20-16 12.388-3.422 22.72-0.422 31 9 2.236 8.874 3.902 17.874 5 27 0.724 2.868 2.056 5.202 4 7zM293 585c35.872-2.866 52.872-22.2 51-58-13.254-35.782-37.586-46.116-73-31-24.628 20.284-28.296 43.952-11 71 9.032 10.010 20.032 16.010 33 18zM829 489c30.044-2.116 39.044-16.782 27-44-14.582-13.628-28.582-12.96-42 2-9.092 19.058-4.092 33.058 15 42zM99 375c13.93-12.928 27.596-26.262 41-40 0.302-8.826-1.031-17.492-4-26-14.333 14.334-28.667 28.666-43 43 2.149 7.594 4.149 15.26 6 23zM71 335c2.747 0.314 5.414-0.020 8-1 13.696-13.362 27.029-27.028 40-41-7.856-2.97-15.856-4.636-24-5-14 14-28 28-42 42 6.484 0.812 12.484 2.478 18 5zM281 313c83.492-5.852 137.826-48.52 163-128 13.814-70.572-7.186-128.238-63-173-65.342-43.992-130.674-43.992-196 0-64.243 53.424-82.577 119.758-55 199 7.336 16.020 16.669 30.688 28 44 10.697-10.362 21.030-21.030 31-32-30.974-44.866-33.974-91.532-9-140 37.118-51.484 86.118-67.818 147-49 64.274 32.090 87.274 83.090 69 153-20.626 49.678-57.958 76.346-112 80-29.108-1.034-55.108-10.366-78-28-10.697 10.362-21.030 21.030-31 32 30.562 26.184 65.896 40.184 106 42zM279 245c61.314-4.982 95.314-37.982 102-99-6.156-59.156-38.824-92.156-98-99-59.222 6.888-91.889 39.888-98 99 0.238 22.716 7.238 43.050 21 61 11-11 22-22 33-33-15.762-32.044-8.43-57.376 22-76 29.77-9.934 52.77-1.602 69 25 11.834 42.476-3.832 67.808-47 76-9.84-0.97-19.172-3.638-28-8-11.334 10-22 20.666-32 32 16.716 12.894 35.384 20.228 56 22zM559 241c26.558-6.448 33.558-21.78 21-46-23.716-13.984-39.382-7.65-47 19 2.564 15.21 11.232 24.21 26 27zM279 177c31.168-5.012 40.168-21.68 27-50-16.628-16.474-32.628-15.806-48 2-5.54 9.142-6.206 18.476-2 28 7-7 14-14 21-21 14.12-2.542 19.12 3.124 15 17-6.698 6.364-13.032 13.030-19 20 2.204 1.352 4.204 2.684 6 4z" />
<glyph unicode="&#xe979;" d="M709 863c63.246 2.386 104.912-26.281 125-86 10.392-70.23-17.94-116.562-85-139-70.176-9.096-115.844 19.904-137 87-7.748 74.533 24.584 120.533 97 138zM711 841c-11.628-2.887-22.96-7.22-34-13-42.422-29.329-54.756-68.33-37-117 26.276-46.962 65.276-62.628 117-47 50.472 26.056 67.472 66.39 51 121-20.316 39.285-52.648 57.951-97 56z" />
<glyph unicode="&#xe97a;" d="M717 817c11.040 1.632 17.706-3.034 20-14 11.442-4.36 16.442-12.36 15-24-2.962-5.16-7.296-6.826-13-5-4.554 3.917-9.554 6.917-15 9-7.856-0.189-12.188-4.189-13-12 1.256-3.516 3.256-6.516 6-9 34.694-3.984 46.362-22.316 35-55-4.134-5.14-9.134-9.14-15-12-2.83-13.224-10.164-16.89-22-11-1.206 3.65-2.54 7.318-4 11-11.55 3.206-17.216 10.538-17 22 6.396 10.336 13.396 10.67 21 1 13.496-5.818 19.828-1.486 19 13-1.666 1.666-3.334 3.334-5 5-30.73 2.704-43.064 19.038-37 49 3.706 10.053 10.706 16.053 21 18-0.668 5.376 0.664 10.043 4 14z" />
<glyph unicode="&#xe97b;" d="M719 615c4.31 0.256 8.31-0.744 12-3 14.334-14.334 28.666-28.666 43-43 2.286-14.392-3.382-19.392-17-15-7 7-14 14-21 21-0.062-60.762-1.396-121.43-4-182-4.72-8.194-11.72-13.194-21-15-45.334-0.666-90.666-1.334-136-2-1-1-2-2-3-3-1.666-37.352-1.332-74.684 1-112 26.99-9.964 38.656-29.298 35-58-6.192-24.276-21.86-36.942-47-38-29.648 2.312-46.314 18.312-50 48 2.138 23.462 14.138 39.462 36 48 1.666 38.65 2.666 77.316 3 116 2.866 10.196 9.2 17.196 19 21 46.666 0.666 93.334 1.334 140 2 1.252 1.5 2.252 3.168 3 5 1.334 57.334 1.334 114.666 0 172-8.398-9.068-17.398-17.402-27-25-14.006 1.704-17.006 8.704-9 21 14.124 14.46 28.458 28.46 43 42zM559 241c-14.768-2.79-23.436-11.79-26-27 7.618-26.65 23.284-32.984 47-19 12.558 24.22 5.558 39.552-21 46z" />
<glyph unicode="&#xe97c;" d="M291 607c51.888-2.884 76.888-30.216 75-82-11.094-44.082-39.428-63.082-85-57-43.032 14.436-60.032 44.104-51 89 10.614 28.774 30.948 45.44 61 50zM293 585c-12.968-1.99-23.968-7.99-33-18-17.296-27.048-13.628-50.716 11-71 35.414-15.116 59.746-4.782 73 31 1.872 35.8-15.128 55.134-51 58z" />
<glyph unicode="&#xe97d;" d="M477 535c4.978 0.404 9.646-0.596 14-3 10.362-10.696 21.030-21.030 32-31 10.97 9.97 21.638 20.304 32 31 13.496 5.818 19.828 1.486 19-13-11.666-11.666-23.334-23.334-35-35 11-11 22-22 33-33 5.718-10.124 3.052-16.792-8-20-2.45 0.724-4.782 1.724-7 3-11.030 11.364-22.362 22.364-34 33-11.638-10.636-22.97-21.636-34-33-9.604-4.532-15.604-1.532-18 9 0.438 2.876 1.438 5.542 3 8 11 11 22 22 33 33-11.666 11.666-23.334 23.334-35 35-1.964 6.55-0.298 11.882 5 16z" />
<glyph unicode="&#xe97e;" d="M825 511c43.524 0.156 62.524-21.178 57-64-11.974-28.152-32.974-38.486-63-31-31.012 16.362-39.344 40.696-25 73 7.91 10.934 18.244 18.268 31 22zM829 489c-19.092-8.942-24.092-22.942-15-42 13.418-14.96 27.418-15.628 42-2 12.044 27.218 3.044 41.884-27 44z" />
<glyph unicode="&#xe97f;" d="M703 347c4.714 0.326 9.38-0.006 14-1 11.030-11.364 22.362-22.364 34-33 11.638 10.636 22.97 21.636 34 33 14.392 2.286 19.392-3.382 15-17-11-11-22-22-33-33 13.506-12.164 25.506-25.496 36-40-2.086-10.048-8.086-13.382-18-10-11.030 11.364-22.362 22.364-34 33-11.638-10.636-22.97-21.636-34-33-13.98-4.010-19.648 0.99-17 15 11.666 11.666 23.334 23.334 35 35-11.666 11.666-23.334 23.334-35 35-1.782 5.996-0.782 11.328 3 16z" />
<glyph unicode="&#xe980;" d="M659 925c-6.246-3.276-9.58-8.61-10-16 2.002-5.964 3.002-11.964 3-18-3.158 3.082-6.826 5.416-11 7-19.666 4.333-27.334-3.333-23-23 1-3.667 3.334-6 7-7-63.634-18.634-104.968-59.634-124-123-19.344 0.332-38.678 0-58-1-2.334-2.334-4.666-4.666-7-7-1-19.322-1.332-38.656-1-58-14.816-3.902-29.15-9.236-43-16-1.544 0.29-2.878 0.956-4 2-31.334 54-62.666 108-94 162-4.314 6.311-9.314 11.978-15 17-21.914 11.438-40.914 7.771-57-11-57.333-98.666-114.667-197.334-172-296-7.275-30.458 4.391-48.792 35-55 57.996-1 115.996-1.334 174-1-0.828-9.148-2.162-18.148-4-27-65.333-0.666-130.667-1.334-196-2-5-2.334-8.667-6-11-11-1.333-28-1.333-56 0-84 1.569-3.572 3.902-6.572 7-9 36.033-1.564 71.7-3.898 107-7 8.495-30.986 20.829-60.318 37-88-21.972-22.972-44.305-45.638-67-68-4.659-5.918-5.993-12.586-4-20 35.609-37.61 71.942-74.61 109-111 6.6-3.758 13.268-3.758 20 0 23.082 23.752 46.75 46.752 71 69 29.202-16.18 59.868-28.846 92-38 0.666-34 1.334-68 2-102 1.57-3.572 3.902-6.572 7-9 54.666-1.334 109.334-1.334 164 0 3.098 2.428 5.43 5.428 7 9 0.666 34 1.334 68 2 102 32.132 9.154 62.798 21.82 92 38 24.25-22.248 47.918-45.248 71-69 6.732-3.758 13.4-3.758 20 0 37.058 36.39 73.39 73.39 109 111 1.334 4.666 1.334 9.334 0 14-23.302 24.97-46.97 49.636-71 74 16.172 27.682 28.504 57.014 37 88 35.3 3.102 70.966 5.436 107 7 3.098 2.428 5.43 5.428 7 9 1.334 28 1.334 56 0 84-2.334 5-6 8.666-11 11-65.344 0.334-130.676 1.334-196 3-1.68 13.406-4.014 26.74-7 40-24.416 92.746-82.084 154.080-173 184 0.332 19.344 0 38.678-1 58-2.334 2.334-4.666 4.666-7 7-14.048 0.338-28.048 1.338-42 3 7.39 19.124 18.056 36.124 32 51 18.078 17.703 39.412 29.036 64 34-3.098-2.428-5.43-5.428-7-9-3-18.333 4.666-26 23-23 8.266 6.262 15.932 13.262 23 21 3.028-10.119 6.362-20.119 10-30 1.806-2.403 4.138-4.070 7-5 13.486-3.597 21.486 1.403 24 15-2.002 5.964-3.002 11.964-3 18 7.662-7.256 16.662-9.59 27-7 11.974 9.251 12.64 19.251 2 30-9.666 5.164-19 10.831-28 17 8.704 9.036 17.038 18.369 25 28 2.894 18.439-4.772 26.106-23 23-8.266-6.262-15.932-13.262-23-21-2.718 10.876-6.052 21.543-10 32-6.486 3.525-13.486 4.858-21 4zM253 817c3.78 0.407 6.78-0.926 9-4 56.6-96.868 112.932-193.868 169-291-0.29-1.544-0.956-2.878-2-4-57.498-2.318-115.164-3.318-173-3-56.333 0.334-112.667 0.666-169 1-7.193 4.872-7.526 10.538-1 17 56.12 94.44 111.787 189.108 167 284zM253 729c2.666 0 5.334 0 8 0-0.574-13.454-2.242-26.786-5-40-3.466 13.354-4.466 26.686-3 40zM469 711c28 0 56 0 84 0 0-7.334 0-14.666 0-22-28 2.666-56 2.666-84 0 0 7.334 0 14.666 0 22zM485 657c105.14 5.282 181.472-38.718 229-132 36.050-95.758 18.384-180.092-53-253-79.494-65.092-165.494-75.092-258-30-87.654 55.668-124.32 135.336-110 239 44.672-0.334 89.338 0 134 1 31.226 6.762 42.894 25.762 35 57-17.932 30.202-35.6 60.534-53 91 5.946 4.982 12.612 8.982 20 12 18.596 6.31 37.262 11.31 56 15zM81 419c58.015 0.666 116.015 0 174-2 17.042-125.378 87.042-203.044 210-233 116.492-14.778 206.16 26.888 269 125 18.434 33.74 29.434 69.74 33 108 57.984 2 115.984 2.666 174 2 0-13.334 0-26.666 0-40-34.006 0.334-68.006 0-102-1-3.098-2.428-5.43-5.428-7-9-4.456-19.822-10.456-39.156-18-58-10.37-20.74-20.702-41.406-31-62 1.108-4.22 2.776-8.22 5-12 21.334-21.334 42.666-42.666 64-64 1.334-1.334 1.334-2.666 0-4-25.334-25.334-50.666-50.666-76-76-21.666 21.666-43.334 43.334-65 65-4.278 2.808-8.944 4.474-14 5-19.166-9.584-38.5-19.25-58-29-20.834-8.278-42.166-14.944-64-20-3.098-2.428-5.43-5.428-7-9-1-33.326-1.334-66.66-1-100-37.334 0-74.666 0-112 0 0.334 33.34 0 66.674-1 100-1.57 3.572-3.902 6.572-7 9-23.32 5.33-45.986 12.662-68 22-18.166 9.084-36.166 18.084-54 27-5.056-0.526-9.722-2.192-14-5-21.666-21.666-43.334-43.334-65-65-26.028 25.694-51.695 51.694-77 78 21.305 22.306 42.972 44.306 65 66 2.224 3.78 3.892 7.78 5 12-10.726 20.416-21.060 41.082-31 62-7.594 20.382-14.261 41.048-20 62-1.667 1.666-3.333 3.334-5 5-33.993 1-67.993 1.334-102 1 0 13.334 0 26.666 0 40z" />
<glyph unicode="&#xe981;" d="M245 763c20.098 3.205 35.764-3.462 47-20 3.808-19.396 3.142-38.73-2-58-5.234-28.168-11.234-56.168-18-84-6.732-10.218-15.732-12.552-27-7-2.402 1.806-4.070 4.138-5 7-10.24 40.534-17.908 81.534-23 123-0.196 19.97 9.138 32.97 28 39zM253 729c-1.466-13.314-0.466-26.646 3-40 2.758 13.214 4.426 26.546 5 40-2.666 0-5.334 0-8 0z" />
<glyph unicode="&#xe982;" d="M503 635c5.374 0.328 10.708-0.006 16-1 3.666-1 6-3.334 7-7 1.334-10 1.334-20 0-30-10-10.666-20-10.666-30 0-1.334 10-1.334 20 0 30 1.38 3.7 3.712 6.368 7 8z" />
<glyph unicode="&#xe983;" d="M245 585c33.264 1.75 46.93-13.582 41-46-10.856-16.952-25.856-21.952-45-15-15.734 10.534-20.734 24.868-15 43 4.812 7.816 11.144 13.816 19 18z" />
<glyph unicode="&#xe984;" d="M637 583c16.092-1.512 22.424-10.178 19-26-6.388-8.418-14.388-14.418-24-18-16.32 3.306-20.986 12.638-14 28 5.59 6.622 11.922 11.954 19 16z" />
<glyph unicode="&#xe985;" d="M503 573c5.374 0.328 10.708-0.006 16-1 3.666-1 6-3.334 7-7 0.666-34 1.334-68 2-102 16.428-13.654 19.094-29.654 8-48-10.538-9.49-22.872-12.49-37-9-5.472 2.724-10.138 6.392-14 11-24.83 1.076-49.496 2.742-74 5-5.788 5.818-7.454 12.818-5 21 1.666 4.334 4.666 7.334 9 9 23.334 0.666 46.666 1.334 70 2 2.334 3.666 5.334 6.666 9 9 0.666 34 1.334 68 2 102 1.38 3.7 3.712 6.368 7 8z" />
<glyph unicode="&#xe986;" d="M323 453c9.534 0.618 18.868-0.382 28-3 6.606-7.59 7.606-15.924 3-25-1.806-2.402-4.138-4.070-7-5-10.236-1.776-20.236-1.11-30 2-5.53 5.99-7.196 12.99-5 21 2.704 4.498 6.37 7.832 11 10z" />
<glyph unicode="&#xe987;" d="M677 453c9.74 0.936 19.072-0.396 28-4 6.69-7.17 7.69-15.17 3-24-1.806-2.402-4.138-4.070-7-5-10.236-1.776-20.236-1.11-30 2-5.53 5.99-7.196 12.99-5 21 2.214 5.226 5.88 8.56 11 10z" />
<glyph unicode="&#xe988;" d="M389 333c14.918-2.588 20.584-11.256 17-26-5.738-6.408-12.070-12.074-19-17-17.364-1.966-24.364 5.7-21 23 5.698 9.394 13.366 16.062 23 20z" />
<glyph unicode="&#xe989;" d="M631 333c17.328-4.962 25.662-16.296 25-34-4.702-8.022-11.702-11.022-21-9-6.93 4.926-13.262 10.592-19 17-3.658 13.948 1.342 22.616 15 26z" />
<glyph unicode="&#xe98a;" d="M509 283c14.672-1.306 20.672-9.306 18-24 2.568-13.58-2.766-21.58-16-24-13.234 2.42-18.568 10.42-16 24-2.394 12.592 2.274 20.592 14 24z" />
<glyph unicode="&#xe98b;" d="M135 945c-52.373-10.728-89.373-40.728-111-90-18.127-52.671-10.793-101.338 22-146 55.768-57.718 119.434-68.052 191-31 61.046 45.142 80.046 104.143 57 177-31.934 66.484-84.934 96.484-159 90zM139 911c51.019 5.652 90.020-13.015 117-56 26.824-62.407 12.49-112.74-43-151-62.407-26.824-112.74-12.49-151 43-26.824 62.407-12.49 112.74 43 151 11.108 5.58 22.441 9.913 34 13z" />
<glyph unicode="&#xe98c;" d="M839 945c-52.374-10.728-89.374-40.728-111-90-18.126-52.671-10.794-101.338 22-146 55.768-57.718 119.434-68.052 191-31 61.046 45.142 80.046 104.143 57 177-31.934 66.484-84.934 96.484-159 90zM863 913c67.698-7.031 104.366-44.364 110-112-1.42-46.396-22.754-80.062-64-101-64.306-21.652-113.306-3.318-147 55-21.652 64.306-3.318 113.306 55 147 15.016 6.127 30.348 9.793 46 11z" />
<glyph unicode="&#xe98d;" d="M827 859c12.516-9.835 24.516-20.502 36-32 11.334 10.667 22.666 21.333 34 32 9.768-7.397 17.436-16.063 23-26-10.696-10.363-21.030-21.029-31-32 10.666-11.333 21.334-22.667 32-34-7.396-9.768-16.064-17.436-26-23-10.362 10.696-21.030 21.030-32 31-11.334-10.667-22.666-21.334-34-32-9.768 7.396-17.436 16.064-23 26 10.696 10.363 21.030 21.029 31 32-10.666 11.333-21.334 22.667-32 34 7.378 8.040 14.71 16.040 22 24z" />
<glyph unicode="&#xe98e;" d="M203 855c9.478-6.462 18.144-14.128 26-23-27.334-27.333-54.667-54.667-82-82-6.667-4-13.333-4-20 0-11.476 11.231-23.142 22.231-35 33-1.333 2-1.333 4 0 6 6.759 7.431 14.092 14.098 22 20 7.574-5.568 14.574-11.901 21-19 1.333-1.333 2.667-1.333 4 0 21.738 21.403 43.071 43.070 64 65z" />
<glyph unicode="&#xe98f;" d="M151 625c6.957 0.632 13.623-0.368 20-3 16.91-22.154 33.576-44.488 50-67-8.228-7.128-16.896-13.794-26-20-6.649 6.988-12.982 14.322-19 22-1-25.324-1.333-50.658-1-76 53.334 0 106.666 0 160 0 0-10.666 0-21.334 0-32-62.842-0.97-125.508 0.030-188 3-1.252 1.5-2.252 3.168-3 5-0.667 33.334-1.333 66.666-2 100-6.018-7.678-12.351-15.012-19-22-9.105 6.206-17.771 12.872-26 20 17.406 24.038 35.406 47.372 54 70z" />
<glyph unicode="&#xe990;" d="M387 625c-8.622-4.294-14.956-10.96-19-20-1.334-93.334-1.334-186.666 0-280 3.666-9 10-15.334 19-19 82.666-1.334 165.334-1.334 248 0 9 3.666 15.334 10 19 19 1.334 93.334 1.334 186.666 0 280-3.666 9-10 15.334-19 19-82.664 1-165.33 1.334-248 1zM399 593c74.666 0 149.334 0 224 0 0-85.334 0-170.666 0-256-74.666 0-149.334 0-224 0 0 85.334 0 170.666 0 256z" />
<glyph unicode="&#xe991;" d="M855 625c6.956 0.632 13.624-0.368 20-3 16.91-22.154 33.576-44.488 50-67-8.228-7.128-16.896-13.794-26-20-6.648 6.988-12.982 14.322-19 22-0.054-34.848-1.388-69.516-4-104-1.5-1.252-3.168-2.252-5-3-61.33-1-122.664-1.334-184-1 0 10.666 0 21.334 0 32 53.334 0 106.666 0 160 0 0.334 25.342 0 50.676-1 76-6.018-7.678-12.352-15.012-19-22-9.104 6.206-17.772 12.872-26 20 17.406 24.038 35.406 47.372 54 70z" />
<glyph unicode="&#xe992;" d="M495 561c50.598 3.734 74.264-19.6 71-70-5.316-20.982-18.316-34.314-39-40 0-8.666 0-17.334 0-26-10.666 0-21.334 0-32 0-0.332 16.014 0 32.014 1 48 1 3.666 3.334 6 7 7 24.082 2.008 33.082 14.342 27 37-10.478 11.602-22.146 12.934-35 4-4.246-4.49-6.246-9.824-6-16-11.334 0-22.666 0-34 0 0.594 27.88 13.928 46.548 40 56z" />
<glyph unicode="&#xe993;" d="M495 401c10.666 0 21.334 0 32 0 0-10.666 0-21.334 0-32-10.666 0-21.334 0-32 0 0 10.666 0 21.334 0 32z" />
<glyph unicode="&#xe994;" d="M495 273c0-21.334 0-42.666 0-64-121.5 0.984-242.834-0.016-364-3-1.252-1.5-2.252-3.168-3-5-0.667-26.666-1.333-53.334-2-80-62.067-20.794-83.4-62.794-64-126 26.17-45.62 64.504-60.62 115-45 27.738 12.45 45.406 33.45 53 63 6.752 55.888-16.58 91.888-70 108-1 18.654-1.333 37.322-1 56 69.334 0 138.666 0 208 0 0-21.334 0-42.666 0-64-10.022 0.332-20.022-0.002-30-1-13.752-20.498-26.752-41.498-39-63-6.666-10.666-6.666-21.334 0-32 12.248-21.502 25.248-42.502 39-63 30.666-1.334 61.334-1.334 92 0 13.752 20.498 26.752 41.498 39 63 6.666 10.666 6.666 21.334 0 32-12.248 21.502-25.248 42.502-39 63-9.978 0.998-19.978 1.332-30 1 0 21.334 0 42.666 0 64 74.666 0 149.334 0 224 0 0-21.334 0-42.666 0-64-18.678 0.332-37.346 0-56-1-3.666-1-6-3.334-7-7-1.334-48-1.334-96 0-144 1-3.666 3.334-6 7-7 48-1.334 96-1.334 144 0 3.666 1 6 3.334 7 7 1.334 48 1.334 96 0 144-1 3.666-3.334 6-7 7-18.654 1-37.322 1.332-56 1 0 21.334 0 42.666 0 64 69.334 0 138.666 0 208 0 0.334-22.676 0-45.344-1-68-23.334-46.666-46.666-93.334-70-140-1.334-5.334-1.334-10.666 0-16 1-3.666 3.334-6 7-7 53.334-1.334 106.666-1.334 160 0 7.554 5.822 9.888 13.488 7 23-23.334 46.666-46.666 93.334-70 140-0.666 30.666-1.334 61.334-2 92-0.748 1.832-1.748 3.5-3 5-121.166 2.984-242.5 3.984-364 3 0 21.334 0 42.666 0 64-10.666 0-21.334 0-32 0zM129 87c33.106 4.294 55.439-9.040 67-40 5.274-33.134-7.726-55.466-39-67-33.133-5.274-55.467 7.726-67 39-5.024 33.312 7.976 55.978 39 68zM357 81c17.346 0.332 34.68 0 52-1 9.252-14.834 18.252-29.834 27-45-7.568-16.776-16.568-33.108-27-49-17.334-1.334-34.666-1.334-52 0-9.252 14.834-18.252 29.834-27 45 7.842 17 16.842 33.666 27 50zM591 81c32 0 64 0 96 0 0-32 0-64 0-96-32 0-64 0-96 0 0 32 0 64 0 96zM877 65c1.752 0.262 3.086-0.404 4-2 14-28 28-56 42-84-29.334-2.666-58.666-2.666-88 0 14.566 28.466 28.566 57.132 42 86z" />
</font>
</defs>
</svg>
