<?xml version="1.0" standalone="no"?>
<!DOCTYPE svg PUBLIC "-//W3C//DTD SVG 20010904//EN"
 "http://www.w3.org/TR/2001/REC-SVG-20010904/DTD/svg10.dtd">
<svg version="1.0" xmlns="http://www.w3.org/2000/svg"
 width="512.000000pt" height="512.000000pt" viewBox="0 0 512.000000 512.000000"
 preserveAspectRatio="xMidYMid meet">

<g transform="translate(0.000000,512.000000) scale(0.100000,-0.100000)"
fill="#000000" stroke="none">
<path d="M175 5056 c-60 -28 -87 -56 -114 -116 -36 -79 -19 -183 42 -249 33
-36 115 -71 167 -71 89 0 182 64 211 145 l13 35 326 0 325 -1 305 -482 c259
-410 305 -487 302 -514 -3 -25 2 -35 22 -48 24 -16 27 -16 75 11 28 15 58 36
68 46 16 18 16 22 2 46 -12 21 -22 27 -46 26 -29 -2 -39 13 -328 468 -164 259
-311 488 -327 509 l-28 39 -348 0 -348 0 -13 35 c-19 53 -59 95 -116 121 -65
31 -126 31 -190 0z m174 -104 c58 -43 64 -140 12 -193 -76 -75 -204 -30 -217
77 -14 110 115 183 205 116z"/>
<path d="M4786 5055 c-48 -17 -112 -78 -128 -122 l-12 -33 -352 0 c-280 0
-355 -3 -366 -13 -7 -8 -155 -237 -328 -510 -292 -460 -317 -496 -342 -495
-52 4 -78 -52 -40 -84 30 -25 92 -58 111 -58 26 0 45 27 46 65 0 25 70 142
305 513 l305 482 331 0 332 0 6 -31 c9 -44 90 -124 141 -138 22 -6 53 -11 69
-11 116 0 226 110 226 225 0 56 -24 110 -70 155 -66 67 -148 86 -234 55z m135
-100 c37 -20 69 -70 69 -110 0 -62 -63 -125 -125 -125 -61 0 -125 63 -125 123
0 63 62 127 123 127 15 0 41 -7 58 -15z"/>
<path d="M2513 4259 c-37 -24 -49 -50 -34 -78 9 -16 22 -19 86 -19 64 0 77 3
86 19 15 28 3 55 -35 79 -42 25 -63 25 -103 -1z"/>
<path d="M2285 4127 c-56 -36 -66 -64 -36 -91 25 -22 49 -17 114 23 34 22 47
37 47 54 0 56 -53 62 -125 14z"/>
<path d="M2730 4146 c-22 -28 -7 -60 45 -93 57 -38 85 -41 109 -14 26 29 12
57 -47 91 -57 33 -88 37 -107 16z"/>
<path d="M2057 3998 c-65 -35 -81 -66 -52 -98 24 -27 36 -25 100 11 66 37 81
72 45 101 -28 23 -24 23 -93 -14z"/>
<path d="M2970 4006 c-22 -28 -7 -60 45 -93 60 -39 89 -42 110 -9 22 33 8 57
-51 90 -52 29 -86 33 -104 12z"/>
<path d="M2005 3544 c-302 -173 -556 -323 -562 -332 -10 -12 -13 -158 -13
-651 0 -350 4 -641 8 -648 6 -10 1075 -637 1110 -650 7 -3 68 26 135 65 67 38
316 181 552 317 237 135 436 254 443 262 9 13 12 159 12 652 0 350 -4 642 -8
648 -9 14 -1077 637 -1108 647 -13 4 -181 -87 -569 -310z m1118 -119 l466
-270 1 -595 0 -596 -511 -294 c-281 -161 -517 -293 -523 -293 -6 0 -200 110
-431 245 -231 134 -459 266 -507 294 l-87 49 -1 595 0 595 517 297 516 296 47
-26 c26 -15 256 -148 513 -297z"/>
<path d="M1939 2954 c-20 -24 -26 -736 -6 -774 l13 -25 184 0 c170 0 188 2
225 22 80 43 115 105 115 203 0 92 -36 162 -102 196 l-27 14 19 43 c37 81 22
207 -33 265 -50 54 -92 66 -238 70 -119 3 -137 2 -150 -14z m275 -98 c48 -20
66 -51 66 -116 0 -97 -45 -130 -175 -130 l-75 0 0 130 0 130 75 0 c42 0 90 -6
109 -14z m90 -360 c48 -20 66 -51 66 -116 0 -106 -41 -130 -220 -130 l-120 0
0 130 0 130 120 0 c81 0 132 -5 154 -14z"/>
<path d="M2752 2958 c-7 -7 -12 -24 -12 -38 0 -41 17 -50 97 -50 l73 0 0 -310
0 -310 -73 0 c-80 0 -97 -9 -97 -50 0 -48 10 -50 225 -50 215 0 225 2 225 50
0 41 -17 50 -97 50 l-73 0 0 310 0 310 73 0 c80 0 97 9 97 50 0 14 -5 31 -12
38 -17 17 -409 17 -426 0z"/>
<path d="M1570 3717 c-57 -33 -73 -64 -50 -93 20 -23 62 -16 115 19 55 36 65
59 39 88 -24 26 -41 24 -104 -14z"/>
<path d="M3452 3728 c-17 -17 -15 -53 6 -70 30 -26 93 -58 112 -58 11 0 27 11
35 24 22 33 8 57 -51 90 -51 28 -83 33 -102 14z"/>
<path d="M1339 3587 c-55 -33 -69 -48 -69 -71 0 -52 44 -59 115 -20 58 33 76
65 50 94 -23 25 -50 24 -96 -3z"/>
<path d="M3701 3593 c-38 -26 -24 -63 39 -100 65 -39 84 -41 105 -9 22 32 9
56 -47 88 -62 36 -73 38 -97 21z"/>
<path d="M1108 3454 c-48 -26 -63 -87 -32 -132 27 -40 84 -23 84 25 0 12 9 27
19 33 45 24 32 90 -17 90 -15 -1 -39 -7 -54 -16z"/>
<path d="M3937 3452 c-23 -25 -21 -59 3 -74 11 -7 20 -22 20 -34 0 -24 29 -54
52 -54 26 0 48 35 48 76 0 47 -5 56 -50 83 -43 26 -52 26 -73 3z"/>
<path d="M1081 3201 c-16 -10 -27 -97 -17 -136 8 -33 46 -51 75 -36 18 10 21
20 21 84 0 44 -5 78 -12 85 -14 14 -47 15 -67 3z"/>
<path d="M3982 3194 c-19 -13 -22 -24 -22 -83 0 -74 10 -91 52 -91 36 0 48 24
48 99 0 51 -3 62 -22 75 -12 9 -25 16 -28 16 -3 0 -16 -7 -28 -16z"/>
<path d="M1080 2920 c-15 -15 -20 -33 -20 -76 0 -70 12 -94 48 -94 42 0 52 17
52 91 0 93 -33 126 -80 79z"/>
<path d="M3976 2914 c-20 -19 -22 -144 -4 -162 17 -17 54 -15 72 4 24 23 22
135 -2 157 -23 21 -46 22 -66 1z"/>
<path d="M190 2777 c-19 -6 -55 -32 -80 -57 -75 -75 -90 -167 -42 -261 84
-166 321 -169 402 -3 l25 51 185 6 c102 4 229 7 282 7 88 0 97 -2 103 -20 7
-24 51 -37 74 -23 17 11 27 106 16 150 -8 33 -50 41 -78 15 -21 -18 -41 -20
-302 -26 l-280 -7 -19 45 c-42 106 -168 160 -286 123z m151 -110 c100 -67 61
-219 -59 -234 -71 -8 -142 56 -142 130 0 99 118 160 201 104z"/>
<path d="M4792 2777 c-46 -14 -115 -78 -137 -126 l-18 -41 -286 0 c-274 0
-287 1 -304 20 -19 22 -57 26 -75 8 -18 -18 -16 -143 4 -162 23 -23 51 -20 70
9 l16 25 288 0 287 0 19 -41 c102 -227 434 -158 434 91 0 74 -23 124 -80 172
-62 54 -141 70 -218 45z m128 -102 c48 -25 70 -62 70 -116 0 -42 -5 -55 -34
-87 -32 -34 -38 -37 -91 -37 -53 0 -59 3 -91 37 -29 32 -34 45 -34 86 0 54 17
84 64 113 37 23 77 24 116 4z"/>
<path d="M1076 2364 c-24 -23 -22 -135 2 -157 23 -21 46 -22 66 -1 20 19 22
144 4 162 -17 17 -54 15 -72 -4z"/>
<path d="M3972 2358 c-7 -7 -12 -40 -12 -78 0 -52 4 -71 18 -83 24 -22 38 -21
62 3 15 15 20 33 20 76 0 30 -5 64 -10 75 -12 22 -59 26 -78 7z"/>
<path d="M1070 2081 c-5 -11 -10 -47 -10 -80 0 -54 3 -62 25 -77 23 -15 27
-15 50 0 23 15 25 23 25 84 0 40 -5 73 -12 80 -19 19 -66 15 -78 -7z"/>
<path d="M3978 2089 c-15 -8 -18 -24 -18 -82 0 -81 9 -97 52 -97 35 0 48 28
48 101 0 70 -37 105 -82 78z"/>
<path d="M1077 1812 c-10 -11 -17 -35 -17 -60 0 -45 20 -71 71 -93 25 -10 32
-9 49 6 26 23 26 61 0 77 -11 7 -20 22 -20 34 0 24 -29 54 -52 54 -8 0 -22 -8
-31 -18z"/>
<path d="M3972 1808 c-6 -7 -13 -25 -17 -41 -4 -15 -11 -27 -16 -27 -19 0 -32
-46 -20 -69 26 -47 125 -9 136 53 9 47 -12 90 -46 94 -14 2 -31 -3 -37 -10z"/>
<path d="M1275 1636 c-23 -34 -8 -57 60 -96 54 -31 57 -31 81 -15 42 27 30 64
-36 102 -65 39 -84 41 -105 9z"/>
<path d="M3734 1620 c-54 -30 -68 -51 -59 -81 14 -43 80 -32 152 24 39 31 25
87 -21 87 -12 0 -44 -13 -72 -30z"/>
<path d="M1515 1496 c-23 -34 -8 -57 60 -96 54 -31 57 -31 81 -15 42 27 30 64
-36 102 -65 39 -84 41 -105 9z"/>
<path d="M3485 1477 c-56 -36 -66 -64 -36 -91 25 -22 49 -17 114 23 34 22 47
37 47 54 0 56 -53 62 -125 14z"/>
<path d="M1755 1356 c-12 -17 -14 -30 -7 -43 7 -14 -51 -115 -297 -510 l-306
-492 -325 -1 -326 0 -13 35 c-29 81 -122 145 -211 145 -52 0 -134 -35 -167
-71 -34 -37 -63 -110 -63 -159 0 -52 35 -134 71 -167 37 -34 110 -63 159 -63
89 0 182 64 211 145 l13 35 346 0 c320 0 348 1 363 18 9 10 155 240 325 512
283 455 311 495 338 498 37 5 54 19 54 47 0 24 -17 41 -73 73 -49 28 -73 28
-92 -2z m-1406 -994 c58 -43 64 -140 12 -193 -76 -75 -204 -30 -217 77 -14
110 115 183 205 116z"/>
<path d="M3258 1348 c-61 -32 -76 -55 -59 -87 15 -28 45 -35 78 -18 l27 15
304 -507 c167 -278 311 -514 319 -523 15 -17 46 -18 369 -18 l353 0 6 -22 c13
-44 59 -100 104 -126 38 -22 58 -27 111 -27 136 1 230 96 230 233 0 116 -110
222 -230 222 -89 0 -182 -64 -211 -145 l-13 -35 -330 2 -330 3 -303 505 c-322
537 -337 560 -356 560 -7 0 -38 -15 -69 -32z m1691 -986 c58 -43 64 -140 12
-193 -76 -75 -204 -30 -217 77 -14 110 115 183 205 116z"/>
<path d="M1995 1216 c-22 -33 -8 -57 51 -90 52 -29 86 -33 104 -12 22 28 7 60
-45 93 -60 39 -89 42 -110 9z"/>
<path d="M3016 1210 c-73 -42 -86 -76 -41 -106 23 -15 27 -14 85 17 68 36 85
66 55 99 -24 26 -40 25 -99 -10z"/>
<path d="M2235 1080 c-26 -29 -8 -61 50 -94 71 -39 115 -32 115 19 0 24 -17
41 -73 73 -47 27 -69 28 -92 2z"/>
<path d="M2770 1067 c-57 -33 -73 -64 -50 -93 20 -23 62 -16 115 19 55 36 65
59 39 88 -24 26 -41 24 -104 -14z"/>
<path d="M2474 939 c-22 -24 -11 -53 30 -79 41 -25 62 -25 103 -1 36 23 49 52
34 80 -9 16 -21 19 -81 19 -54 -1 -73 -5 -86 -19z"/>
</g>
</svg>
